<?xml version="1.0" encoding="utf-8"?>
<!-- Generator: Adobe Illustrator 16.0.0, SVG Export Plug-In . SVG Version: 6.00 Build 0)  -->
<!DOCTYPE svg PUBLIC "-//W3C//DTD SVG 1.1//EN" "http://www.w3.org/Graphics/SVG/1.1/DTD/svg11.dtd">
<svg version="1.1" id="Layer_1" xmlns="http://www.w3.org/2000/svg" xmlns:xlink="http://www.w3.org/1999/xlink" x="0px" y="0px"
	 width="507.334px" height="128px" viewBox="0 0 507.334 128" enable-background="new 0 0 507.334 128" xml:space="preserve">
<g>
	<g>
		<path fill="#50B848" d="M134.816,94.081c-0.065-0.13-0.116-0.168-0.219-0.168c-0.323,0-1.73,0.736-3.524,0.736
			c-1.511,0-3.175-0.311-3.55-0.659c-0.374-0.375-0.774-2.026-0.774-3.679c0-0.825,0.116-2.555,0.465-2.904
			c0.361-0.374,2.698-0.787,4.362-0.787c1.239,0,2.568,0.219,2.852,0.168c0.285-0.039,0.427-0.284,0.427-0.775
			c0-0.607-0.117-1.278-0.232-1.42c-0.168-0.193-1.304-0.4-2.711-0.4c-1.768,0-3.705,0.466-3.847,0.439
			c-0.129-0.026-0.374-0.698-0.49-1.2c-0.117-0.53-0.194-1.187-0.117-1.266c0.284-0.297,2.724-0.786,4.996-0.786
			c2.271,0,4.414,0.321,4.957,0.824c0.503,0.478,0.839,2.853,0.839,5.835c0,2.103-0.297,5.807-0.556,6.054
			c-0.206,0.193-2.129,0.425-2.439,0.425c-0.117,0-0.271-0.077-0.323-0.206L134.816,94.081z M132.364,92.117
			c1.446,0,2.026-0.206,2.168-0.335c0.104-0.089,0.258-0.568,0.258-1.988c0-0.399-0.077-0.592-0.193-0.645
			c-0.194-0.064-0.942-0.22-2.362-0.22c-1.239,0-2.143,0.22-2.246,0.311c-0.142,0.129-0.258,0.529-0.258,1.187
			c0,0.607,0.143,1.279,0.271,1.395C130.144,91.937,131.086,92.13,132.364,92.117z"/>
		<path fill="#50B848" d="M140.721,88.193c0-3.51,0.284-5.408,0.542-5.897c0.284-0.388,1.575-0.684,2.118-0.684
			c0.103,0,0.193,0.025,0.245,0.128l0.077,0.168c0.104,0.219,0.194,0.296,0.374,0.296c0.646,0,1.265-0.824,3.963-0.824
			c2.129,0,4.001,0.451,4.324,0.824c0.374,0.414,0.788,3.253,0.788,5.964v4.905c0,0.645-0.026,1.174-0.142,1.265
			c-0.116,0.104-0.943,0.18-1.73,0.18c-0.788,0-1.601-0.089-1.717-0.18c-0.116-0.091-0.142-0.556-0.142-1.265v-6.389
			c0-1.032-0.104-1.949-0.22-2.053c-0.117-0.116-1.265-0.323-2.298-0.323c-0.994,0-2.155,0.297-2.284,0.4
			c-0.104,0.091-0.168,1.071-0.168,1.975v6.389c0,0.645-0.039,1.174-0.143,1.265c-0.128,0.104-0.941,0.18-1.729,0.18
			c-0.801,0-1.601-0.089-1.717-0.18c-0.115-0.091-0.141-0.569-0.141-1.265V88.193z"/>
		<path fill="#50B848" d="M164.565,77.893c0-0.645,0.039-1.173,0.142-1.265c0.117-0.09,0.943-0.181,1.691-0.181
			c0.774,0,1.485,0.091,1.601,0.181c0.103,0.091,0.142,0.568,0.142,1.265v14.779c0,1.085-0.232,1.536-0.311,1.625
			c-0.089,0.117-0.373,0.22-1.497,0.22c-0.709,0-0.915-0.052-0.98-0.168l-0.194-0.322c-0.078-0.156-0.116-0.219-0.258-0.219
			c-0.633,0-1.007,0.839-3.86,0.839c-2.697,0-4.207-0.543-4.529-0.853c-0.361-0.375-0.853-2.788-0.853-5.757
			c0-3.188,0.543-5.523,0.853-5.859c0.323-0.349,1.704-0.8,4.092-0.8c2.503,0,3.124,0.813,3.614,0.813
			c0.219,0,0.348-0.155,0.348-0.492V77.893z M161.713,91.744c1.497,0,2.582-0.323,2.749-0.452c0.104-0.091,0.271-1.55,0.271-3.37
			c0-1.69-0.168-3.058-0.271-3.188c-0.193-0.194-1.717-0.439-2.787-0.439c-1.51,0-2.233,0.22-2.415,0.425
			c-0.193,0.195-0.425,1.859-0.425,3.292c0,1.769,0.297,3.163,0.425,3.304C159.39,91.459,160.113,91.744,161.713,91.744z"/>
		<path fill="#50B848" d="M170.65,87.652c0-3.368,0.607-5.266,0.865-5.551c0.426-0.424,2.169-0.721,5.164-0.721
			c2.929,0,4.324,0.333,4.698,0.773c0.271,0.311,0.71,1.73,0.71,3.267c0,1.433-0.31,2.942-0.556,3.213
			c-0.334,0.309-2.593,0.633-4.233,0.657c-0.852,0.026-2.117-0.102-2.813-0.217c-0.4-0.04-0.491,0.052-0.491,0.36
			c-0.013,0.66,0.091,1.769,0.297,1.988c0.219,0.246,1.691,0.439,2.723,0.439c2.208,0,3.834-0.555,3.989-0.504
			c0.09,0.026,0.335,0.594,0.452,1.073c0.116,0.477,0.18,1.2,0.155,1.289c-0.065,0.129-1.858,0.931-5.356,0.931
			c-2.014,0-4.247-0.284-4.711-0.763C170.806,93.138,170.65,89.058,170.65,87.652z M176.691,86.993
			c1.252-0.012,2.143-0.232,2.259-0.309c0.103-0.104,0.219-0.607,0.219-1.227c0-0.813-0.129-1.174-0.219-1.252
			c-0.156-0.128-0.982-0.284-2.272-0.284c-1.33,0.012-2.233,0.207-2.35,0.323c-0.154,0.141-0.335,0.504-0.335,1.305
			c0,0.593,0.052,1.019,0.142,1.108C174.381,86.877,175.982,86.993,176.691,86.993z"/>
		<path fill="#50B848" d="M184.144,88.633c0-4.648,0.349-6.093,0.554-6.351c0.258-0.322,1.408-0.67,2.092-0.67
			c0.128,0,0.219,0.038,0.258,0.128l0.09,0.168c0.09,0.193,0.193,0.257,0.321,0.257c0.375,0,2.35-0.786,3.318-0.786
			c0.542,0,0.71,0.502,0.801,1.535c0.091,0.93,0,1.162-0.194,1.277c-0.154,0.092-0.529,0.142-1.096,0.142
			c-0.892,0-2.079,0.194-2.233,0.335c-0.104,0.092-0.181,1.123-0.181,2.027v6.376c0,0.645-0.025,1.174-0.129,1.265
			c-0.129,0.104-0.955,0.18-1.729,0.18c-0.8,0-1.613-0.089-1.729-0.18c-0.117-0.091-0.143-0.569-0.143-1.265V88.633z"/>
		<path fill="#50B848" d="M192.679,92.504c0.167-0.671,0.49-1.239,0.658-1.278c0.232-0.051,2.969,0.555,4.944,0.555
			c0.594,0,1.768-0.089,1.962-0.219c0.065-0.038,0.167-0.322,0.167-0.762c0-0.425-0.039-0.839-0.141-0.916
			c-0.143-0.104-1.911-0.388-3.382-0.66c-1.523-0.284-3.084-0.567-3.64-1.005c-0.245-0.194-0.594-1.343-0.594-2.892
			c0-0.917,0.104-2.659,0.503-3.084c0.53-0.531,2.608-0.864,4.892-0.864c3.162,0,4.97,0.644,5.124,0.824
			c0.104,0.117-0.012,0.853-0.141,1.279c-0.169,0.594-0.414,1.251-0.555,1.265c-0.207,0.024-2.698-0.479-4.311-0.464
			c-0.994,0-1.897,0.142-2.079,0.284c-0.116,0.102-0.167,0.321-0.167,0.749c0,0.425,0.091,0.696,0.18,0.787
			c0.246,0.18,1.936,0.413,3.149,0.619c1.769,0.335,3.369,0.633,3.679,0.943c0.245,0.244,0.529,1.407,0.529,3.008
			c0,1.651-0.4,2.981-0.671,3.291c-0.271,0.296-1.716,0.685-4.504,0.685c-3.549,0-5.628-0.568-5.731-0.685
			C192.486,93.873,192.523,93.073,192.679,92.504z"/>
		<path fill="#50B848" d="M210.33,77.893c0-0.684,0.025-1.148,0.141-1.265c0.091-0.09,0.943-0.181,1.729-0.181
			c0.775,0,1.626,0.091,1.717,0.181c0.116,0.116,0.141,0.543,0.141,1.265v8.456c0,0.168,0.129,0.219,0.271,0.077l4.375-4.492
			c0.452-0.477,0.827-0.786,0.942-0.786c0.207,0,0.814,0.373,1.239,0.749c0.426,0.4,0.852,1.069,0.852,1.212
			c0,0.142-0.348,0.541-0.735,0.93l-2.504,2.607c-0.232,0.231-0.245,0.322-0.026,0.644l3.446,5.215
			c0.169,0.271,0.362,0.659,0.349,0.749c-0.013,0.155-0.606,0.697-1.213,1.072c-0.723,0.452-1.304,0.657-1.484,0.657
			c-0.142,0-0.517-0.452-0.788-0.865l-3.007-4.582c-0.065-0.104-0.155-0.104-0.246,0l-1.251,1.278
			c-0.181,0.179-0.22,0.271-0.22,0.53v1.857c0,0.685-0.025,1.02-0.129,1.137c-0.09,0.091-0.955,0.18-1.729,0.18
			c-0.787,0-1.639-0.089-1.729-0.18c-0.116-0.117-0.141-0.542-0.141-1.265V77.893z"/>
		<path fill="#50B848" d="M223.461,78.113c0-0.761,0.128-1.381,0.219-1.472c0.104-0.077,0.891-0.205,1.704-0.205
			c0.839,0,1.613,0.128,1.716,0.205c0.065,0.079,0.22,0.698,0.22,1.486c0,0.825-0.167,1.432-0.22,1.497
			c-0.064,0.064-0.852,0.205-1.716,0.205c-0.852,0-1.639-0.141-1.704-0.205C223.615,79.572,223.461,78.952,223.461,78.113z
			 M223.526,83.057c0-0.646,0.026-1.175,0.128-1.265c0.13-0.104,0.956-0.18,1.73-0.18c0.801,0,1.613,0.089,1.729,0.18
			c0.117,0.09,0.142,0.568,0.142,1.265v10.016c0,0.645-0.025,1.174-0.142,1.265c-0.116,0.104-0.941,0.18-1.729,0.18
			c-0.787,0-1.6-0.089-1.717-0.18c-0.116-0.091-0.142-0.569-0.142-1.265V83.057z"/>
		<path fill="#50B848" d="M229.957,83.057c0-0.685,0.026-1.175,0.142-1.265c0.129-0.104,0.903-0.18,1.639-0.18
			c0.773,0,1.548,0.089,1.652,0.18c0.104,0.09,0.143,0.608,0.143,1.265v9.899c0,2.956-0.4,5.253-0.852,5.718
			c-0.503,0.542-4.092,1.447-4.543,1.187c-0.168-0.104-0.479-0.631-0.697-1.38c-0.193-0.671-0.258-1.291-0.219-1.38
			c0.117-0.246,2.142-0.736,2.401-0.983c0.142-0.127,0.323-1.2,0.323-3.342L229.957,83.057z M229.853,78.113
			c0-0.761,0.129-1.381,0.22-1.472c0.103-0.089,0.903-0.205,1.716-0.205c0.838,0,1.613,0.116,1.704,0.205
			c0.077,0.091,0.219,0.698,0.219,1.486c0,0.825-0.154,1.445-0.219,1.497c-0.064,0.064-0.839,0.205-1.704,0.205
			c-0.852,0-1.652-0.141-1.716-0.205C230.02,79.572,229.853,78.952,229.853,78.113z"/>
		<path fill="#50B848" d="M236.18,77.893c0-0.684,0.025-1.148,0.142-1.265c0.091-0.09,0.943-0.181,1.73-0.181
			c0.774,0,1.626,0.091,1.717,0.181c0.115,0.116,0.141,0.543,0.141,1.265v8.456c0,0.168,0.129,0.219,0.272,0.077l4.375-4.492
			c0.451-0.477,0.827-0.786,0.942-0.786c0.206,0,0.813,0.373,1.239,0.749c0.426,0.4,0.852,1.069,0.852,1.212
			c0,0.142-0.349,0.541-0.735,0.93l-2.505,2.607c-0.232,0.231-0.245,0.322-0.026,0.644l3.447,5.215
			c0.167,0.271,0.361,0.659,0.349,0.749c-0.013,0.155-0.607,0.697-1.213,1.072c-0.723,0.452-1.304,0.657-1.485,0.657
			c-0.142,0-0.516-0.452-0.788-0.865l-3.007-4.582c-0.064-0.104-0.155-0.104-0.245,0l-1.251,1.278
			c-0.181,0.179-0.22,0.271-0.22,0.53v1.857c0,0.685-0.026,1.02-0.128,1.137c-0.09,0.091-0.956,0.18-1.73,0.18
			c-0.787,0-1.639-0.089-1.73-0.18c-0.116-0.117-0.142-0.542-0.142-1.265V77.893z"/>
		<path fill="#50B848" d="M249.247,87.652c0-3.368,0.607-5.266,0.865-5.551c0.425-0.424,2.168-0.721,5.163-0.721
			c2.929,0,4.324,0.333,4.699,0.773c0.27,0.311,0.709,1.73,0.709,3.267c0,1.433-0.31,2.942-0.555,3.213
			c-0.336,0.309-2.595,0.633-4.234,0.657c-0.852,0.026-2.116-0.102-2.813-0.217c-0.4-0.04-0.491,0.052-0.491,0.36
			c-0.013,0.66,0.091,1.769,0.297,1.988c0.219,0.246,1.691,0.439,2.724,0.439c2.208,0,3.833-0.555,3.988-0.504
			c0.091,0.026,0.335,0.594,0.452,1.073c0.116,0.477,0.181,1.2,0.155,1.289c-0.065,0.129-1.858,0.931-5.356,0.931
			c-2.014,0-4.247-0.284-4.71-0.763C249.401,93.138,249.247,89.058,249.247,87.652z M255.288,86.993
			c1.252-0.012,2.142-0.232,2.259-0.309c0.103-0.104,0.22-0.607,0.22-1.227c0-0.813-0.129-1.174-0.22-1.252
			c-0.156-0.128-0.981-0.284-2.272-0.284c-1.33,0.012-2.233,0.207-2.349,0.323c-0.155,0.141-0.336,0.504-0.336,1.305
			c0,0.593,0.052,1.019,0.142,1.108C252.977,86.877,254.578,86.993,255.288,86.993z"/>
		<path fill="#50B848" d="M262.701,88.193c0-3.51,0.284-5.408,0.542-5.897c0.284-0.388,1.574-0.684,2.117-0.684
			c0.104,0,0.194,0.025,0.246,0.128l0.077,0.168c0.104,0.219,0.194,0.296,0.374,0.296c0.646,0,1.266-0.824,3.963-0.824
			c2.13,0,4.002,0.451,4.324,0.824c0.375,0.414,0.788,3.253,0.788,5.964v4.905c0,0.645-0.026,1.174-0.143,1.265
			c-0.116,0.104-0.942,0.18-1.729,0.18c-0.788,0-1.601-0.089-1.717-0.18c-0.116-0.091-0.143-0.556-0.143-1.265v-6.389
			c0-1.032-0.104-1.949-0.219-2.053c-0.116-0.116-1.265-0.323-2.297-0.323c-0.994,0-2.155,0.297-2.285,0.4
			c-0.104,0.091-0.167,1.071-0.167,1.975v6.389c0,0.645-0.039,1.174-0.143,1.265c-0.128,0.104-0.942,0.18-1.729,0.18
			c-0.8,0-1.601-0.089-1.716-0.18c-0.116-0.091-0.142-0.569-0.142-1.265V88.193z"/>
		<path fill="#50B848" d="M278.738,94.66c0-0.259-0.026-0.387-0.207-0.439c-0.128-0.025-0.709-0.065-0.8-0.167
			c-0.116-0.156-0.258-0.84-0.258-1.524c0-0.581,0.142-1.29,0.297-1.433c0.154-0.129,0.838-0.297,1.51-0.297
			c0.762,0,1.549,0.141,1.717,0.297c0.104,0.104,0.207,0.813,0.207,1.652c0,3.511-2.065,5.564-2.311,5.628
			c-0.142,0.04-0.503-0.104-0.891-0.348c-0.361-0.208-0.593-0.439-0.62-0.569C277.343,97.19,278.738,95.421,278.738,94.66z"/>
		<path fill="#50B848" d="M295.946,94.081c-0.065-0.13-0.116-0.168-0.219-0.168c-0.323,0-1.729,0.736-3.524,0.736
			c-1.51,0-3.174-0.311-3.549-0.659c-0.374-0.375-0.775-2.026-0.775-3.679c0-0.825,0.117-2.555,0.465-2.904
			c0.361-0.374,2.697-0.787,4.363-0.787c1.239,0,2.569,0.219,2.853,0.168c0.284-0.039,0.426-0.284,0.426-0.775
			c0-0.607-0.116-1.278-0.231-1.42c-0.169-0.193-1.305-0.4-2.711-0.4c-1.768,0-3.704,0.466-3.846,0.439
			c-0.129-0.026-0.375-0.698-0.491-1.2c-0.116-0.53-0.193-1.187-0.116-1.266c0.284-0.297,2.723-0.786,4.995-0.786
			c2.271,0,4.415,0.321,4.957,0.824c0.502,0.478,0.838,2.853,0.838,5.835c0,2.103-0.297,5.807-0.555,6.054
			c-0.207,0.193-2.13,0.425-2.44,0.425c-0.115,0-0.27-0.077-0.321-0.206L295.946,94.081z M293.495,92.117
			c1.445,0,2.025-0.206,2.168-0.335c0.103-0.089,0.258-0.568,0.258-1.988c0-0.399-0.078-0.592-0.193-0.645
			c-0.194-0.064-0.943-0.22-2.362-0.22c-1.239,0-2.142,0.22-2.247,0.311c-0.142,0.129-0.258,0.529-0.258,1.187
			c0,0.607,0.143,1.279,0.272,1.395C291.274,91.937,292.217,92.13,293.495,92.117z"/>
		<path fill="#50B848" d="M301.85,88.193c0-3.51,0.285-5.408,0.543-5.897c0.284-0.388,1.575-0.684,2.116-0.684
			c0.104,0,0.193,0.025,0.246,0.128l0.078,0.168c0.103,0.219,0.192,0.296,0.374,0.296c0.646,0,1.265-0.824,3.963-0.824
			c2.13,0,4,0.451,4.323,0.824c0.375,0.414,0.787,3.253,0.787,5.964v4.905c0,0.645-0.026,1.174-0.141,1.265
			c-0.116,0.104-0.942,0.18-1.729,0.18c-0.788,0-1.602-0.089-1.717-0.18c-0.117-0.091-0.143-0.556-0.143-1.265v-6.389
			c0-1.032-0.103-1.949-0.219-2.053c-0.116-0.116-1.265-0.323-2.298-0.323c-0.993,0-2.155,0.297-2.283,0.4
			c-0.104,0.091-0.168,1.071-0.168,1.975v6.389c0,0.645-0.039,1.174-0.142,1.265c-0.129,0.104-0.941,0.18-1.729,0.18
			c-0.801,0-1.601-0.089-1.717-0.18c-0.116-0.091-0.143-0.569-0.143-1.265V88.193z"/>
		<path fill="#50B848" d="M325.696,77.893c0-0.645,0.039-1.173,0.141-1.265c0.117-0.09,0.942-0.181,1.691-0.181
			c0.775,0,1.484,0.091,1.601,0.181c0.104,0.091,0.142,0.568,0.142,1.265v14.779c0,1.085-0.232,1.536-0.309,1.625
			c-0.091,0.117-0.375,0.22-1.498,0.22c-0.709,0-0.917-0.052-0.981-0.168l-0.193-0.322c-0.078-0.156-0.116-0.219-0.258-0.219
			c-0.632,0-1.007,0.839-3.859,0.839c-2.698,0-4.208-0.543-4.531-0.853c-0.361-0.375-0.851-2.788-0.851-5.757
			c0-3.188,0.542-5.523,0.851-5.859c0.323-0.349,1.704-0.8,4.092-0.8c2.503,0,3.124,0.813,3.614,0.813
			c0.219,0,0.349-0.155,0.349-0.492V77.893z M322.843,91.744c1.497,0,2.582-0.323,2.75-0.452c0.104-0.091,0.271-1.55,0.271-3.37
			c0-1.69-0.167-3.058-0.271-3.188c-0.193-0.194-1.716-0.439-2.788-0.439c-1.51,0-2.233,0.22-2.414,0.425
			c-0.194,0.195-0.426,1.859-0.426,3.292c0,1.769,0.297,3.163,0.426,3.304C320.52,91.459,321.243,91.744,322.843,91.744z"/>
		<path fill="#50B848" d="M331.781,87.652c0-3.368,0.606-5.266,0.864-5.551c0.426-0.424,2.168-0.721,5.163-0.721
			c2.93,0,4.324,0.333,4.699,0.773c0.271,0.311,0.71,1.73,0.71,3.267c0,1.433-0.311,2.942-0.555,3.213
			c-0.335,0.309-2.594,0.633-4.233,0.657c-0.853,0.026-2.118-0.102-2.815-0.217c-0.4-0.04-0.491,0.052-0.491,0.36
			c-0.012,0.66,0.09,1.769,0.298,1.988c0.219,0.246,1.69,0.439,2.723,0.439c2.207,0,3.833-0.555,3.988-0.504
			c0.09,0.026,0.336,0.594,0.452,1.073c0.116,0.477,0.18,1.2,0.154,1.289c-0.063,0.129-1.857,0.931-5.356,0.931
			c-2.013,0-4.247-0.284-4.711-0.763C331.935,93.138,331.781,89.058,331.781,87.652z M337.821,86.993
			c1.252-0.012,2.143-0.232,2.259-0.309c0.104-0.104,0.219-0.607,0.219-1.227c0-0.813-0.13-1.174-0.219-1.252
			c-0.155-0.128-0.981-0.284-2.272-0.284c-1.329,0.012-2.232,0.207-2.349,0.323c-0.155,0.141-0.336,0.504-0.336,1.305
			c0,0.593,0.052,1.019,0.143,1.108C335.51,86.877,337.111,86.993,337.821,86.993z"/>
		<path fill="#50B848" d="M345.273,88.633c0-4.648,0.35-6.093,0.557-6.351c0.258-0.322,1.406-0.67,2.09-0.67
			c0.129,0,0.219,0.038,0.258,0.128l0.091,0.168c0.09,0.193,0.193,0.257,0.323,0.257c0.375,0,2.348-0.786,3.316-0.786
			c0.543,0,0.71,0.502,0.801,1.535c0.089,0.93,0,1.162-0.194,1.277c-0.154,0.092-0.529,0.142-1.097,0.142
			c-0.89,0-2.079,0.194-2.232,0.335c-0.104,0.092-0.182,1.123-0.182,2.027v6.376c0,0.645-0.026,1.174-0.129,1.265
			c-0.129,0.104-0.955,0.18-1.73,0.18c-0.8,0-1.613-0.089-1.73-0.18c-0.116-0.091-0.143-0.569-0.143-1.265V88.633z"/>
		<path fill="#50B848" d="M353.809,92.504c0.168-0.671,0.491-1.239,0.658-1.278c0.232-0.051,2.969,0.555,4.944,0.555
			c0.594,0,1.769-0.089,1.962-0.219c0.065-0.038,0.167-0.322,0.167-0.762c0-0.425-0.037-0.839-0.141-0.916
			c-0.142-0.104-1.911-0.388-3.382-0.66c-1.522-0.284-3.084-0.567-3.64-1.005c-0.245-0.194-0.594-1.343-0.594-2.892
			c0-0.917,0.104-2.659,0.504-3.084c0.529-0.531,2.606-0.864,4.891-0.864c3.164,0,4.97,0.644,5.124,0.824
			c0.104,0.117-0.012,0.853-0.143,1.279c-0.167,0.594-0.411,1.251-0.553,1.265c-0.208,0.024-2.698-0.479-4.312-0.464
			c-0.993,0-1.897,0.142-2.078,0.284c-0.116,0.102-0.168,0.321-0.168,0.749c0,0.425,0.09,0.696,0.181,0.787
			c0.245,0.18,1.936,0.413,3.149,0.619c1.769,0.335,3.37,0.633,3.678,0.943c0.245,0.244,0.53,1.407,0.53,3.008
			c0,1.651-0.401,2.981-0.672,3.291c-0.271,0.296-1.715,0.685-4.504,0.685c-3.549,0-5.628-0.568-5.73-0.685
			C353.615,93.873,353.654,93.073,353.809,92.504z"/>
		<path fill="#50B848" d="M371.459,77.893c0-0.684,0.026-1.148,0.142-1.265c0.091-0.09,0.942-0.181,1.729-0.181
			c0.774,0,1.627,0.091,1.717,0.181c0.116,0.116,0.141,0.543,0.141,1.265v8.456c0,0.168,0.13,0.219,0.272,0.077l4.375-4.492
			c0.453-0.477,0.826-0.786,0.943-0.786c0.207,0,0.813,0.373,1.238,0.749c0.427,0.4,0.852,1.069,0.852,1.212
			c0,0.142-0.348,0.541-0.735,0.93l-2.505,2.607c-0.231,0.231-0.245,0.322-0.025,0.644l3.447,5.215
			c0.167,0.271,0.361,0.659,0.348,0.749c-0.013,0.155-0.607,0.697-1.212,1.072c-0.724,0.452-1.304,0.657-1.485,0.657
			c-0.142,0-0.515-0.452-0.787-0.865l-3.007-4.582c-0.065-0.104-0.155-0.104-0.246,0l-1.252,1.278c-0.18,0.179-0.22,0.271-0.22,0.53
			v1.857c0,0.685-0.025,1.02-0.128,1.137c-0.091,0.091-0.957,0.18-1.73,0.18c-0.788,0-1.639-0.089-1.729-0.18
			c-0.116-0.117-0.142-0.542-0.142-1.265V77.893z"/>
		<path fill="#50B848" d="M384.591,78.113c0-0.761,0.13-1.381,0.219-1.472c0.104-0.077,0.891-0.205,1.704-0.205
			c0.838,0,1.613,0.128,1.717,0.205c0.065,0.079,0.22,0.698,0.22,1.486c0,0.825-0.168,1.432-0.22,1.497
			c-0.064,0.064-0.852,0.205-1.717,0.205c-0.852,0-1.64-0.141-1.704-0.205C384.747,79.572,384.591,78.952,384.591,78.113z
			 M384.656,83.057c0-0.646,0.025-1.175,0.129-1.265c0.129-0.104,0.957-0.18,1.73-0.18c0.801,0,1.613,0.089,1.729,0.18
			c0.117,0.09,0.143,0.568,0.143,1.265v10.016c0,0.645-0.025,1.174-0.143,1.265c-0.116,0.104-0.942,0.18-1.729,0.18
			c-0.788,0-1.601-0.089-1.717-0.18c-0.117-0.091-0.142-0.569-0.142-1.265V83.057z"/>
		<path fill="#50B848" d="M390.842,87.652c0-3.368,0.605-5.266,0.864-5.551c0.426-0.424,2.168-0.721,5.162-0.721
			c2.931,0,4.324,0.333,4.698,0.773c0.271,0.311,0.711,1.73,0.711,3.267c0,1.433-0.311,2.942-0.555,3.213
			c-0.336,0.309-2.595,0.633-4.234,0.657c-0.852,0.026-2.118-0.102-2.814-0.217c-0.399-0.04-0.49,0.052-0.49,0.36
			c-0.012,0.66,0.091,1.769,0.297,1.988c0.219,0.246,1.691,0.439,2.724,0.439c2.207,0,3.833-0.555,3.988-0.504
			c0.091,0.026,0.337,0.594,0.451,1.073c0.116,0.477,0.182,1.2,0.155,1.289c-0.064,0.129-1.858,0.931-5.356,0.931
			c-2.013,0-4.247-0.284-4.71-0.763C390.996,93.138,390.842,89.058,390.842,87.652z M396.881,86.993
			c1.252-0.012,2.143-0.232,2.26-0.309c0.104-0.104,0.219-0.607,0.219-1.227c0-0.813-0.129-1.174-0.219-1.252
			c-0.155-0.128-0.981-0.284-2.273-0.284c-1.329,0.012-2.232,0.207-2.348,0.323c-0.155,0.141-0.336,0.504-0.336,1.305
			c0,0.593,0.052,1.019,0.143,1.108C394.571,86.877,396.172,86.993,396.881,86.993z"/>
		<path fill="#50B848" d="M409.406,84.748c0.22-0.232,0.13-0.4-0.116-0.4h-4.505c-0.413,0-0.916-0.014-0.994-0.116
			c-0.064-0.091-0.143-0.724-0.143-1.267c0-0.554,0.092-1.135,0.169-1.225c0.065-0.091,0.44-0.128,0.993-0.128h8.146
			c0.567,0,0.801,0.065,0.864,0.128c0.115,0.104,0.258,0.464,0.258,1.239c0,0.736-0.143,1.316-0.387,1.574l-5.511,6.829
			c-0.181,0.207-0.13,0.335,0.104,0.335h4.84c0.503,0,0.942,0.026,0.993,0.116c0.064,0.092,0.143,0.761,0.143,1.292
			c0,0.581-0.078,1.173-0.155,1.265c-0.077,0.09-0.451,0.128-0.993,0.128h-8.52c-0.477,0-0.735-0.065-0.801-0.117
			c-0.128-0.115-0.257-0.477-0.257-1.212c0-0.736,0.142-1.33,0.387-1.601L409.406,84.748z"/>
		<path fill="#50B848" d="M415.98,87.652c0-3.368,0.607-5.266,0.865-5.551c0.426-0.424,2.168-0.721,5.163-0.721
			c2.929,0,4.323,0.333,4.698,0.773c0.271,0.311,0.709,1.73,0.709,3.267c0,1.433-0.31,2.942-0.555,3.213
			c-0.336,0.309-2.594,0.633-4.232,0.657c-0.854,0.026-2.117-0.102-2.814-0.217c-0.4-0.04-0.49,0.052-0.49,0.36
			c-0.014,0.66,0.09,1.769,0.297,1.988c0.219,0.246,1.69,0.439,2.723,0.439c2.207,0,3.834-0.555,3.988-0.504
			c0.09,0.026,0.336,0.594,0.452,1.073c0.116,0.477,0.181,1.2,0.154,1.289c-0.063,0.129-1.858,0.931-5.356,0.931
			c-2.012,0-4.246-0.284-4.711-0.763C416.136,93.138,415.98,89.058,415.98,87.652z M422.021,86.993
			c1.252-0.012,2.143-0.232,2.259-0.309c0.104-0.104,0.22-0.607,0.22-1.227c0-0.813-0.13-1.174-0.22-1.252
			c-0.155-0.128-0.981-0.284-2.271-0.284c-1.329,0.012-2.233,0.207-2.35,0.323c-0.155,0.141-0.335,0.504-0.335,1.305
			c0,0.593,0.051,1.019,0.143,1.108C419.711,86.877,421.312,86.993,422.021,86.993z"/>
		<path fill="#50B848" d="M429.436,88.193c0-3.51,0.284-5.408,0.543-5.897c0.283-0.388,1.573-0.684,2.115-0.684
			c0.105,0,0.193,0.025,0.246,0.128l0.077,0.168c0.104,0.219,0.193,0.296,0.376,0.296c0.645,0,1.264-0.824,3.961-0.824
			c2.129,0,4,0.451,4.324,0.824c0.373,0.414,0.785,3.253,0.785,5.964v4.905c0,0.645-0.025,1.174-0.139,1.265
			c-0.117,0.104-0.943,0.18-1.73,0.18c-0.789,0-1.602-0.089-1.717-0.18c-0.117-0.091-0.143-0.556-0.143-1.265v-6.389
			c0-1.032-0.104-1.949-0.219-2.053c-0.117-0.116-1.266-0.323-2.299-0.323c-0.994,0-2.154,0.297-2.283,0.4
			c-0.104,0.091-0.168,1.071-0.168,1.975v6.389c0,0.645-0.039,1.174-0.143,1.265c-0.129,0.104-0.941,0.18-1.729,0.18
			c-0.801,0-1.602-0.089-1.717-0.18c-0.116-0.091-0.143-0.569-0.143-1.265V88.193z"/>
	</g>
</g>
<g>
	<path fill="#00564C" d="M159.903,39.134c-3.702,0-5.641,0.728-6.922,1.209c-0.566,0.212-0.974,0.366-1.303,0.366
		c-0.34,0-0.908-0.167-1.627-0.376c-1.631-0.478-4.094-1.199-7.763-1.199c-3.171,0-5.091,0.736-6.361,1.224
		c-0.631,0.241-1.128,0.433-1.594,0.435c-0.001-0.002-0.032-0.031-0.089-0.145l-0.19-0.379c-0.12-0.242-0.425-0.646-1.105-0.646
		c-1.561,0-4.184,0.771-4.91,1.643c-0.808,0.985-1.309,5.983-1.309,13.045v9.896c0,2.146-0.038,2.979,0.387,3.31
		c0.651,0.505,3.988,0.513,4.022,0.513c0.564,0,3.414-0.025,4.051-0.536c0.329-0.288,0.639-0.984,0.639-3.286V50.564
		c0-1.725,0.143-3.031,0.246-3.48c0.581-0.185,2.558-0.533,4.149-0.533c2.169,0,3.777,0.252,4.295,0.384
		c0.053,0.231,0.126,0.675,0.126,1.376v16.045c0,2.148,0.116,2.824,0.542,3.154c0.65,0.508,3.987,0.513,4.021,0.513
		c0.565,0,3.414-0.025,4.05-0.535c0.33-0.287,0.486-0.83,0.486-3.132V48.285c0-0.824,0.043-1.167,0.071-1.292
		c0.575-0.155,2.71-0.415,4.46-0.415c1.463,0,2.789,0.188,3.23,0.318c0.104,0.411,0.294,1.743,0.294,4.593v12.866
		c0,2.148,0.117,2.824,0.541,3.154c0.651,0.508,3.989,0.513,4.022,0.513c0.565,0,3.413-0.025,4.052-0.535
		c0.328-0.289,0.485-0.832,0.485-3.132V54.231c0-6.287-0.771-12.094-1.771-13.242C168.109,39.898,164.316,39.134,159.903,39.134z"/>
	<path fill="#00564C" d="M184.4,29.298c-0.484-0.364-2.626-0.559-3.987-0.559c-1.314,0-3.479,0.2-4.026,0.618
		c-0.529,0.529-0.646,2.734-0.646,3.538c0,0.807,0.128,3.211,0.647,3.622c0.472,0.47,3.115,0.617,4.024,0.617
		c0.918,0,3.581-0.147,4.102-0.671c0.282-0.354,0.597-1.896,0.597-3.541c0-1.516-0.278-3.128-0.606-3.523L184.4,29.298z"/>
	<path fill="#00564C" d="M184.437,40.136c-0.651-0.507-3.989-0.512-4.023-0.512c-0.563,0-3.413,0.023-4.051,0.536
		c-0.328,0.289-0.484,0.829-0.484,3.132v21.064c0,2.145,0.116,2.823,0.54,3.154c0.652,0.508,3.962,0.513,3.995,0.513
		c0.809,0,3.494-0.038,4.023-0.513c0.373-0.29,0.541-0.814,0.541-3.154V43.291C184.977,41.143,184.86,40.465,184.437,40.136z"/>
	<path fill="#00564C" d="M202.199,61.069c-1.382-0.446-2.05-0.772-2.288-0.902c-0.13-0.42-0.371-1.845-0.371-3.794l-0.028-23.94
		c0-2.148-0.117-2.826-0.541-3.154c-0.65-0.508-3.801-0.514-3.833-0.514s-3.219,0.013-3.853,0.507
		c-0.36,0.271-0.521,0.792-0.521,3.161v23.858c0,6.456,1.045,9.295,1.65,9.944c1.1,1.243,7.161,2.275,9.102,2.275
		c0.293,0,0.529-0.04,0.741-0.123c0.724-0.28,1.423-1.3,1.863-2.721c0.382-1.145,0.668-2.798,0.49-3.275
		C204.468,61.966,203.656,61.521,202.199,61.069z"/>
	<path fill="#00564C" d="M216.308,40.136c-0.65-0.507-3.989-0.512-4.023-0.512c-0.563,0-3.413,0.023-4.05,0.536
		c-0.329,0.289-0.485,0.829-0.485,3.132v21.064c0,2.145,0.116,2.823,0.541,3.154c0.652,0.508,3.963,0.513,3.995,0.513
		c0.81,0,3.493-0.038,4.023-0.513c0.374-0.29,0.54-0.814,0.54-3.154V43.291C216.848,41.143,216.732,40.465,216.308,40.136z"/>
	<path fill="#00564C" d="M216.272,29.298c-0.486-0.364-2.627-0.559-3.987-0.559c-1.314,0-3.479,0.2-4.025,0.618
		c-0.53,0.529-0.646,2.734-0.646,3.538c0,0.807,0.128,3.211,0.646,3.622c0.472,0.47,3.115,0.617,4.024,0.617
		c0.917,0,3.58-0.147,4.101-0.671c0.284-0.354,0.599-1.896,0.599-3.541c0-1.514-0.278-3.126-0.605-3.523L216.272,29.298z"/>
	<path fill="#00564C" d="M230.226,56.56c1.422,0.235,3.78,0.477,5.532,0.477c0.175,0,0.343-0.002,0.496-0.007
		c2.712-0.043,8.303-0.612,9.36-1.592c0.761-0.84,1.33-4.483,1.33-7.179c0-3.343-0.961-6.494-1.645-7.273
		c-1.045-1.23-4.53-1.851-10.357-1.851c-4.379,0-9.893,0.295-11.322,1.726c-0.8,0.879-1.981,5.332-1.981,12.094
		c0,0.468,0.022,11.486,2.05,13.549c1.379,1.416,7.378,1.79,10.357,1.79c6.91,0,11.437-1.52,11.867-2.407
		c0.121-0.422-0.113-2.191-0.319-3.037c-0.061-0.253-0.626-2.492-1.361-2.697l-0.261-0.041c-0.209,0-0.497,0.062-1.13,0.199
		c-1.397,0.303-4,0.867-7.195,0.867c-2.394,0-4.908-0.444-5.26-0.716c-0.228-0.314-0.494-2.188-0.463-3.761
		c0-0.064,0.002-0.112,0.006-0.147C230.005,56.549,230.148,56.556,230.226,56.56z M230.385,46.281
		c0.229-0.13,1.798-0.517,4.562-0.543c2.705,0,4.15,0.322,4.32,0.4c0.08,0.118,0.287,0.745,0.287,2.202
		c0,1.055-0.168,1.838-0.253,2.076c-0.456,0.149-2.069,0.503-4.331,0.527c-1.685,0-4.323-0.258-4.897-0.514
		c-0.056-0.198-0.148-0.76-0.148-1.897C229.924,46.8,230.344,46.327,230.385,46.281z"/>
	<path fill="#00564C" d="M276.858,40.188c-0.618-0.549-3.68-0.565-4.026-0.565c-0.033,0-3.313,0.013-4.049,0.534
		c-0.33,0.289-0.487,0.83-0.487,3.133v13.057c0,1.848-0.142,3.428-0.257,3.911c-0.53,0.207-2.436,0.645-4.38,0.645
		c-1.932,0-3.928-0.339-4.355-0.471c-0.113-0.404-0.283-1.775-0.283-3.923V43.291c0-2.271-0.191-2.836-0.538-3.103
		c-0.618-0.549-3.68-0.565-4.026-0.565c-0.033,0-3.312,0.013-4.051,0.536c-0.329,0.289-0.485,0.829-0.485,3.132V53.66
		c0,5.151,0.762,11.787,1.789,12.959c0.985,1.098,5.5,1.674,9.452,1.674c3.389,0,5.5-0.593,6.898-0.985
		c0.684-0.192,1.223-0.343,1.625-0.343c0.073,0,0.108,0.005,0.116,0.001c0.014,0.018,0.051,0.069,0.109,0.193l0.151,0.299
		c0.287,0.644,0.911,0.644,1.117,0.644c1.383,0,4.26-0.819,4.973-1.814c0.758-1.36,1.246-6.403,1.246-12.845V43.291
		C277.396,41.02,277.205,40.455,276.858,40.188z"/>
	<path fill="#00564C" d="M304.615,28.244c-0.032,0-3.301,0.012-3.97,0.533c-0.27,0.237-0.512,0.655-0.512,3.134v8.53
		c0,0.323-0.098,0.393-0.106,0.406c-0.176,0-0.479-0.145-0.865-0.327c-1.101-0.517-2.944-1.385-6.736-1.385
		c-5.057,0-8.196,0.947-9.064,1.886c-0.926,1.002-1.958,6.484-1.958,12.747c0,5.696,0.902,11.44,1.984,12.559
		c0.822,0.791,4.154,1.967,9.962,1.967c4.223,0,6.02-0.876,7.092-1.401c0.403-0.195,0.683-0.333,0.952-0.357
		c0.019,0.037,0.043,0.086,0.078,0.154l0.397,0.658c0.322,0.581,1.035,0.676,2.611,0.676c2.602,0,3.29-0.248,3.626-0.68
		c0.135-0.158,0.801-1.077,0.801-3.829V31.911c0-2.256-0.181-2.843-0.541-3.154C307.716,28.249,304.741,28.244,304.615,28.244z
		 M300.484,53.524c0,3.348-0.269,5.953-0.439,6.641c-0.545,0.233-2.489,0.766-5.285,0.766c-3.203,0-4.529-0.558-4.649-0.633
		c-0.188-0.339-0.776-2.968-0.776-6.583c0-3.065,0.493-6.105,0.742-6.509c0.006-0.006,0.73-0.681,4.603-0.681
		c2.188,0,4.803,0.467,5.352,0.704C300.182,47.803,300.484,50.159,300.484,53.524z"/>
	<path fill="#00564C" d="M321.5,56.56c1.423,0.235,3.783,0.477,5.536,0.477c0.172,0,0.344-0.002,0.496-0.007
		c2.709-0.043,8.301-0.612,9.358-1.592c0.761-0.84,1.33-4.483,1.33-7.179c0-3.343-0.96-6.494-1.643-7.273
		c-1.047-1.23-4.53-1.851-10.358-1.851c-4.377,0-9.891,0.295-11.322,1.726c-0.799,0.879-1.98,5.332-1.98,12.094
		c0,0.468,0.022,11.486,2.049,13.549c1.379,1.416,7.378,1.79,10.357,1.79c6.914,0,11.44-1.52,11.868-2.407
		c0.122-0.422-0.113-2.191-0.319-3.037c-0.062-0.253-0.627-2.492-1.36-2.697l-0.259-0.041c-0.211,0-0.498,0.062-1.134,0.199
		c-1.398,0.303-3.996,0.867-7.194,0.867c-2.393,0-4.906-0.444-5.26-0.716c-0.227-0.314-0.495-2.188-0.462-3.761
		c0-0.064,0.003-0.112,0.004-0.147C321.28,56.549,321.424,56.556,321.5,56.56z M321.661,46.281c0.23-0.13,1.798-0.517,4.563-0.543
		c2.705,0,4.147,0.322,4.319,0.4c0.078,0.118,0.288,0.745,0.288,2.202c0,1.055-0.17,1.838-0.253,2.076
		c-0.456,0.149-2.069,0.503-4.333,0.527c-1.684,0-4.32-0.258-4.895-0.514c-0.057-0.198-0.148-0.76-0.148-1.897
		C321.201,46.8,321.619,46.327,321.661,46.281z"/>
	<path fill="#00564C" d="M361.25,30.001c-0.409-0.705-3.409-1.724-7.761-1.724c-2.861,0-6.339,0.516-7.182,1.36
		c-0.997,0.913-1.451,4.494-1.451,7.439v1.354c0,0.292-0.032,0.813-0.059,1.175c-0.145,0.009-0.322,0.018-0.51,0.018h-0.624
		c-1.582,0-2.226,0.143-2.506,0.509c-0.338,0.338-0.511,1.246-0.511,2.697c0,0.943,0.111,2.463,0.398,2.955
		c0.352,0.471,1.091,0.495,2.265,0.495h0.625c0.199,0,0.399,0.014,0.562,0.029c0.018,0.155,0.031,0.347,0.031,0.538v17.509
		c0,2.122,0.12,2.829,0.566,3.171c0.576,0.406,3.082,0.495,3.916,0.495c0.031,0,3.098-0.004,3.778-0.535
		c0.336-0.294,0.486-0.815,0.486-3.132V46.847c0-0.193,0.015-0.389,0.033-0.546c0.155-0.011,0.35-0.02,0.561-0.02h2.226
		c2.083,0,2.565-0.132,2.927-0.507c0.325-0.454,0.442-2.042,0.442-2.999c0-2.186-0.35-2.536-0.48-2.667
		c-0.121-0.122-0.484-0.484-2.835-0.484h-2.66c-0.212,0-0.412-0.01-0.563-0.022c-0.001-0.042-0.005-0.089-0.005-0.137v-2.387
		c0-0.891,0.094-1.295,0.144-1.448c0.164-0.044,0.629-0.125,1.836-0.125c1.298,0,2.516,0.125,3.323,0.208
		c0.41,0.042,0.71,0.07,0.859,0.07l0.155-0.007l0.207-0.064c0.229-0.118,0.818-0.586,1.353-2.453l0.033-0.127
		C361.454,30.921,361.462,30.362,361.25,30.001z"/>
	<path fill="#00564C" d="M369.806,56.56c1.423,0.235,3.78,0.477,5.534,0.477c0.174,0,0.343-0.002,0.499-0.007
		c2.709-0.043,8.298-0.612,9.358-1.592c0.761-0.84,1.33-4.483,1.33-7.179c0-3.343-0.962-6.494-1.642-7.273
		c-1.049-1.23-4.532-1.851-10.362-1.851c-4.375,0-9.89,0.295-11.318,1.726c-0.8,0.879-1.985,5.332-1.985,12.094
		c0,0.468,0.025,11.486,2.054,13.549c1.377,1.416,7.376,1.79,10.356,1.79c6.912,0,11.438-1.52,11.867-2.407
		c0.12-0.422-0.113-2.191-0.318-3.037c-0.062-0.253-0.63-2.492-1.362-2.697l-0.261-0.041c-0.21,0-0.497,0.062-1.132,0.199
		c-1.397,0.303-3.996,0.867-7.192,0.867c-2.395,0-4.907-0.444-5.262-0.716c-0.227-0.314-0.495-2.188-0.462-3.761
		c0-0.064,0.001-0.112,0.005-0.147C369.585,56.549,369.731,56.556,369.806,56.56z M369.966,46.281
		c0.229-0.13,1.801-0.517,4.563-0.543c2.705,0,4.15,0.322,4.32,0.4c0.081,0.118,0.287,0.745,0.287,2.202
		c0,1.055-0.168,1.838-0.251,2.076c-0.456,0.149-2.069,0.503-4.332,0.527c-1.686,0-4.321-0.258-4.898-0.514
		c-0.058-0.198-0.146-0.76-0.146-1.897C369.507,46.8,369.925,46.327,369.966,46.281z"/>
	<path fill="#00564C" d="M405.521,39.134c-3.938,0-5.842,0.811-7.103,1.349c-0.53,0.227-0.913,0.39-1.291,0.39h-0.002
		c-0.005-0.006-0.056-0.05-0.157-0.26l-0.168-0.372c-0.142-0.281-0.446-0.618-1.08-0.618c-1.078,0-4.15,0.593-5.006,1.774
		c-0.63,1.197-1.057,4.833-1.178,9.777c-0.021,0.93-0.034,1.905-0.034,2.919v10.261c0,2.145,0.114,2.824,0.538,3.154
		c0.654,0.508,3.964,0.513,3.998,0.513c0.565,0,3.414-0.025,4.05-0.535c0.269-0.238,0.512-0.653,0.512-3.132V50.919
		c0-1.826,0.119-3.22,0.216-3.693c0.583-0.207,2.536-0.675,4.313-0.675c1.966,0,3.93,0.353,4.358,0.498
		c0.118,0.399,0.306,1.791,0.306,3.87v13.437c0,2.145,0.119,2.823,0.544,3.154c0.651,0.508,3.963,0.513,3.995,0.513
		c0.809,0,3.492-0.038,4.021-0.513c0.373-0.29,0.541-0.814,0.541-3.154V54.041c0-5.174-0.777-11.815-1.809-12.95
		C414.174,40.03,409.793,39.134,405.521,39.134z"/>
	<path fill="#00564C" d="M435.008,50.44l-0.314-0.06c-0.561-0.094-1.17-0.191-1.781-0.29c-1.592-0.257-3.961-0.64-4.521-0.875
		c-0.066-0.139-0.18-0.512-0.18-1.171c0-0.877,0.118-1.073,0.104-1.075c0.276-0.166,1.883-0.472,3.994-0.472h0.127
		c2.249,0,5.33,0.472,7.172,0.752c1.002,0.154,1.512,0.222,1.824,0.223c0.32-0.029,0.857-0.08,1.709-3.104
		c0.033-0.105,0.779-2.6,0.174-3.276c-0.602-0.703-4.873-1.958-11.252-1.958c-4.027,0-9.252,0.524-10.744,2.018
		c-1.168,1.245-1.229,5.98-1.229,6.917c0,3.025,0.653,5.913,1.486,6.572c1.266,1,4.406,1.585,7.731,2.204l0.198,0.038
		c0.836,0.153,1.716,0.309,2.563,0.459c1.684,0.297,3.754,0.663,4.217,0.79c0.049,0.181,0.117,0.621,0.117,1.445
		c0,0.573-0.09,0.938-0.148,1.1c-0.543,0.158-2.441,0.335-3.703,0.335c-2.666,0-5.984-0.531-8.181-0.886
		c-1.217-0.193-1.815-0.287-2.13-0.287l-0.229,0.021c-0.926,0.217-1.648,2.346-1.846,3.134c-0.184,0.672-0.582,3.028-0.135,3.65
		c0.52,0.581,5.662,1.649,12.52,1.649c5.125,0,9.025-0.645,9.945-1.653c0.756-0.858,1.566-3.909,1.566-7.333
		c0-3.172-0.545-6.016-1.295-6.77C442.033,51.803,439.473,51.29,435.008,50.44z"/>
	<path fill="#00564C" d="M456.301,40.136c-0.65-0.507-3.99-0.512-4.023-0.512c-0.564,0-3.414,0.023-4.051,0.536
		c-0.33,0.289-0.486,0.829-0.486,3.132v21.064c0,2.145,0.115,2.823,0.541,3.154c0.652,0.508,3.961,0.513,3.996,0.513
		c0.809,0,3.494-0.038,4.023-0.513c0.373-0.29,0.539-0.814,0.539-3.154V43.291C456.84,41.143,456.723,40.465,456.301,40.136z"/>
	<path fill="#00564C" d="M456.264,29.298c-0.484-0.364-2.629-0.559-3.986-0.559c-1.316,0-3.479,0.2-4.025,0.618
		c-0.529,0.529-0.648,2.734-0.648,3.538c0,0.807,0.129,3.211,0.65,3.622c0.471,0.47,3.113,0.617,4.023,0.617
		c0.918,0,3.578-0.147,4.098-0.671c0.285-0.354,0.602-1.896,0.602-3.541c0-1.514-0.277-3.126-0.605-3.523L456.264,29.298z"/>
	<path fill="#00564C" d="M483.336,60.151l-0.262-0.041c-0.209,0-0.496,0.062-1.131,0.199c-1.396,0.303-3.996,0.867-7.195,0.867
		c-2.393,0-4.906-0.444-5.258-0.716c-0.229-0.314-0.496-2.188-0.465-3.761c0-0.064,0.002-0.112,0.006-0.147
		c0.074-0.003,0.217,0.004,0.295,0.007c1.424,0.235,3.781,0.477,5.533,0.477c0.174,0,0.346-0.002,0.498-0.007
		c2.711-0.043,8.301-0.612,9.361-1.592c0.758-0.84,1.326-4.483,1.326-7.179c0-3.343-0.959-6.494-1.645-7.273
		c-1.045-1.23-4.527-1.851-10.355-1.851c-4.381,0-9.893,0.295-11.324,1.726c-0.795,0.879-1.98,5.332-1.98,12.094
		c0,0.468,0.023,11.486,2.051,13.549c1.377,1.416,7.379,1.79,10.355,1.79c6.912,0,11.438-1.52,11.871-2.407
		c0.121-0.422-0.113-2.191-0.32-3.037C484.637,62.595,484.07,60.356,483.336,60.151z M469.488,46.281
		c0.229-0.13,1.795-0.517,4.561-0.543c2.705,0,4.15,0.322,4.32,0.4c0.078,0.118,0.287,0.745,0.287,2.202
		c0,1.055-0.17,1.838-0.254,2.076c-0.455,0.149-2.068,0.503-4.332,0.527c-1.684,0-4.32-0.258-4.896-0.514
		c-0.055-0.198-0.148-0.76-0.148-1.897C469.025,46.8,469.445,46.327,469.488,46.281z"/>
</g>
<g>
	<path fill="#50B848" d="M101.522,28.267c-2.475-2.469-15.752-6.149-36.529-6.149c-21.316,0-34.321,3.339-36.538,5.704
		c-2.573,2.627-6.103,17.622-6.103,36.491c0,19.998,3.713,33.417,6.02,35.788c2.3,2.542,13.273,6.399,36.622,6.399
		c24.668,0,34.223-3.683,36.439-6.146c2.479-2.624,5.301-15.88,5.301-36.042C106.734,44.046,103.913,30.54,101.522,28.267z"/>
	<path fill-rule="evenodd" clip-rule="evenodd" fill="#FFFFFF" d="M63.347,45.975c-12.002,4.559-16.344,17.434-13.045,25.962
		c3.193,8.261,11.717,15.504,21.83,11.959c10.117-3.543,17.26-17.118,13.638-27.476c-1.167-3.333-3.062-5.887-5.359-7.758
		c-3.921-3.162-6.768-2.408-8.867-2.616C69.634,45.871,66.985,44.598,63.347,45.975z M79.525,41.812
		c-0.599-0.621-1.237-3.784-3.887-5.197C72.983,35.189,67.09,32,55.056,36.222C44.441,39.933,30.678,51.99,36.057,71.957
		c4.957,18.441,25.703,25.428,38.576,20.916c12.865-4.508,23.51-21.753,18.206-36.871C89.333,45.975,80.122,42.447,79.525,41.812z"
		/>
</g>
<g>
</g>
<g>
</g>
<g>
</g>
<g>
</g>
<g>
</g>
<g>
</g>
</svg>
