<?xml version="1.0" encoding="UTF-8" standalone="no"?>
<!-- Created with Inkscape (http://www.inkscape.org/) -->

<svg
   xmlns:dc="http://purl.org/dc/elements/1.1/"
   xmlns:cc="http://creativecommons.org/ns#"
   xmlns:rdf="http://www.w3.org/1999/02/22-rdf-syntax-ns#"
   xmlns:svg="http://www.w3.org/2000/svg"
   xmlns="http://www.w3.org/2000/svg"
   xmlns:sodipodi="http://sodipodi.sourceforge.net/DTD/sodipodi-0.dtd"
   xmlns:inkscape="http://www.inkscape.org/namespaces/inkscape"
   id="svg2"
   version="1.1"
   inkscape:version="0.91 r13725"
   xml:space="preserve"
   width="472.47501"
   height="208.14999"
   viewBox="0 0 472.47501 208.14999"
   sodipodi:docname="logo-int-vmd.svg"
   inkscape:export-filename="/home/sven/Documents/1484-ILL combi foe netherlands-cmyk.eps.png"
   inkscape:export-xdpi="90"
   inkscape:export-ydpi="90"><metadata
     id="metadata8"><rdf:RDF><cc:Work
         rdf:about=""><dc:format>image/svg+xml</dc:format><dc:type
           rdf:resource="http://purl.org/dc/dcmitype/StillImage" /><dc:title></dc:title></cc:Work></rdf:RDF></metadata><defs
     id="defs6" /><sodipodi:namedview
     pagecolor="#ffffff"
     bordercolor="#666666"
     borderopacity="1"
     objecttolerance="10"
     gridtolerance="10"
     guidetolerance="10"
     inkscape:pageopacity="0"
     inkscape:pageshadow="2"
     inkscape:window-width="1396"
     inkscape:window-height="575"
     id="namedview4"
     showgrid="false"
     inkscape:zoom="0.7513625"
     inkscape:cx="236.2375"
     inkscape:cy="104.075"
     inkscape:window-x="204"
     inkscape:window-y="372"
     inkscape:window-maximized="0"
     inkscape:current-layer="g10" /><g
     id="g10"
     inkscape:groupmode="layer"
     inkscape:label="ink_ext_XXXXXX"
     transform="matrix(1.25,0,0,-1.25,0,208.15)"><g
       id="g12"
       transform="scale(0.1,0.1)"><path
         d="m 348.969,605.691 c -38.946,0 -59.336,-7.66 -72.813,-12.73 -5.961,-2.231 -10.242,-3.852 -13.711,-3.852 -3.578,0 -9.554,1.762 -17.117,3.961 -17.16,5.032 -43.066,12.621 -81.66,12.621 -33.359,0 -53.555,-7.75 -66.9141,-12.882 -6.6406,-2.528 -11.8711,-4.539 -16.7656,-4.571 -0.0117,0.032 -0.336,0.321 -0.9375,1.524 l -2,3.988 c -1.2656,2.539 -4.4688,6.789 -11.6211,6.789 -16.4219,0 -44.0078,-8.109 -51.6484,-17.277 C 5.27734,572.898 0.0117188,520.32 0.0117188,446.031 l 0,-104.101 c 0,-22.559 -0.4023438,-31.328 4.0703112,-34.809 6.85547,-5.312 41.95317,-5.391 42.31637,-5.391 5.9375,0 35.9063,0.258 42.6094,5.641 3.4649,3.027 6.7227,10.348 6.7227,34.559 l 0,143.519 c 0,18.141 1.5039,31.879 2.5859,36.61 6.1136,1.941 26.9026,5.613 43.6486,5.613 22.816,0 39.73,-2.652 45.176,-4.043 0.558,-2.43 1.328,-7.098 1.328,-14.469 l 0,-168.781 c 0,-22.598 1.215,-29.719 5.695,-33.18 6.848,-5.347 41.949,-5.39 42.305,-5.39 5.949,0 35.914,0.261 42.609,5.621 3.465,3.019 5.11,8.73 5.11,32.949 l 0,169.051 c 0,8.672 0.453,12.281 0.746,13.59 6.046,1.628 28.507,4.359 46.918,4.359 15.394,0 29.336,-1.969 33.976,-3.348 1.098,-4.32 3.098,-18.332 3.098,-48.32 l 0,-135.332 c 0,-22.598 1.226,-29.719 5.683,-33.18 6.856,-5.347 41.969,-5.39 42.317,-5.39 5.945,0 35.902,0.261 42.625,5.621 3.453,3.031 5.101,8.75 5.101,32.949 l 0,106.5 c 0,66.121 -8.109,127.223 -18.632,139.293 -10.723,11.476 -50.629,19.519 -97.051,19.519"
         style="fill:#1d4f45;fill-opacity:1;fill-rule:nonzero;stroke:none"
         id="path14"
         inkscape:connector-curvature="0" /><path
         d="m 606.664,709.156 c -5.098,3.832 -27.625,5.883 -41.937,5.883 -13.825,0 -36.598,-2.109 -42.348,-6.496 -5.57,-5.563 -6.797,-28.762 -6.797,-37.219 0,-8.484 1.348,-33.785 6.813,-38.094 4.964,-4.941 32.765,-6.492 42.332,-6.492 9.652,0 37.668,1.551 43.148,7.063 2.969,3.73 6.285,19.949 6.285,37.246 0,15.941 -2.93,32.898 -6.379,37.058 l -1.117,1.051"
         style="fill:#1d4f45;fill-opacity:1;fill-rule:nonzero;stroke:none"
         id="path16"
         inkscape:connector-curvature="0" /><path
         d="m 607.051,595.148 c -6.848,5.332 -41.957,5.391 -42.324,5.391 -5.926,0 -35.899,-0.238 -42.614,-5.629 -3.453,-3.039 -5.097,-8.719 -5.097,-32.949 l 0,-221.582 c 0,-22.57 1.226,-29.699 5.683,-33.18 6.864,-5.347 41.68,-5.39 42.028,-5.39 8.511,0 36.75,0.402 42.324,5.39 3.922,3.051 5.683,8.563 5.683,33.18 l 0,221.582 c 0,22.598 -1.226,29.73 -5.683,33.187"
         style="fill:#1d4f45;fill-opacity:1;fill-rule:nonzero;stroke:none"
         id="path18"
         inkscape:connector-curvature="0" /><path
         d="m 793.895,374.941 c -14.54,4.7 -21.567,8.118 -24.067,9.489 -1.371,4.422 -3.906,19.41 -3.906,39.91 l -0.293,251.836 c 0,22.594 -1.227,29.726 -5.684,33.179 -6.84,5.344 -39.98,5.407 -40.316,5.407 -0.332,0 -33.859,-0.137 -40.524,-5.332 -3.789,-2.848 -5.484,-8.332 -5.484,-33.254 l 0,-250.965 c 0,-67.922 10.992,-97.789 17.363,-104.609 11.571,-13.082 75.329,-23.942 95.75,-23.942 3.079,0 5.563,0.418 7.793,1.289 7.614,2.949 14.965,13.68 19.594,28.621 4.016,12.051 7.031,29.442 5.152,34.461 -1.5,4.481 -10.05,9.168 -25.378,13.91"
         style="fill:#1d4f45;fill-opacity:1;fill-rule:nonzero;stroke:none"
         id="path20"
         inkscape:connector-curvature="0" /><path
         d="m 942.32,595.148 c -6.84,5.332 -41.965,5.391 -42.324,5.391 -5.926,0 -35.898,-0.238 -42.609,-5.629 -3.457,-3.039 -5.102,-8.719 -5.102,-32.949 l 0,-221.582 c 0,-22.57 1.215,-29.699 5.684,-33.18 6.859,-5.347 41.687,-5.39 42.027,-5.39 8.52,0 36.746,0.402 42.324,5.39 3.934,3.051 5.684,8.563 5.684,33.18 l 0,221.582 c 0,22.598 -1.227,29.73 -5.684,33.187"
         style="fill:#1d4f45;fill-opacity:1;fill-rule:nonzero;stroke:none"
         id="path22"
         inkscape:connector-curvature="0" /><path
         d="m 941.938,709.156 c -5.106,3.832 -27.629,5.883 -41.942,5.883 -13.824,0 -36.594,-2.109 -42.344,-6.496 -5.578,-5.563 -6.793,-28.762 -6.793,-37.219 0,-8.484 1.348,-33.785 6.801,-38.094 4.969,-4.941 32.77,-6.492 42.336,-6.492 9.652,0 37.66,1.551 43.145,7.063 2.98,3.73 6.293,19.949 6.293,37.246 0,15.926 -2.918,32.883 -6.368,37.058 l -1.128,1.051"
         style="fill:#1d4f45;fill-opacity:1;fill-rule:nonzero;stroke:none"
         id="path24"
         inkscape:connector-curvature="0" /><path
         d="m 1090.41,530.5 c 2.4,1.379 18.91,5.441 47.98,5.719 28.45,0 43.66,-3.391 45.45,-4.207 0.84,-1.242 3.02,-7.84 3.02,-23.16 0,-11.102 -1.77,-19.34 -2.67,-21.832 -4.79,-1.571 -21.76,-5.301 -45.55,-5.54 -17.73,0 -45.48,2.711 -51.52,5.399 -0.59,2.082 -1.56,7.992 -1.56,19.961 0,18.211 4.41,23.18 4.85,23.66 z m -1.68,-108.121 c 14.96,-2.469 39.76,-5.02 58.19,-5.02 1.85,0 3.62,0.032 5.22,0.082 28.54,0.457 87.34,6.438 98.47,16.75 8,8.84 13.99,47.161 13.99,75.52 0,35.16 -10.11,68.309 -17.3,76.508 -11,12.941 -47.65,19.472 -108.95,19.472 -46.06,0 -104.07,-3.113 -119.11,-18.16 -8.41,-9.242 -20.838,-56.09 -20.838,-127.222 0,-4.93 0.243,-120.829 21.578,-142.528 14.5,-14.89 77.61,-18.82 108.95,-18.82 72.69,0 120.3,15.988 124.83,25.32 1.28,4.438 -1.18,23.039 -3.35,31.949 -0.64,2.661 -6.59,26.211 -14.32,28.372 l -2.75,0.429 c -2.2,0 -5.22,-0.64 -11.88,-2.09 -14.71,-3.191 -42.08,-9.121 -75.69,-9.121 -25.19,0 -51.63,4.668 -55.34,7.532 -2.39,3.296 -5.2,23.007 -4.87,39.558 0,0.668 0.02,1.18 0.06,1.551 0.78,0.039 2.29,-0.039 3.11,-0.082"
         style="fill:#1d4f45;fill-opacity:1;fill-rule:nonzero;stroke:none"
         id="path26"
         inkscape:connector-curvature="0" /><path
         d="m 1579.28,594.602 c -6.51,5.777 -38.72,5.937 -42.36,5.937 -0.35,0 -34.85,-0.129 -42.6,-5.617 -3.47,-3.031 -5.12,-8.731 -5.12,-32.961 l 0,-137.359 c 0,-19.43 -1.49,-36.051 -2.71,-41.141 -5.57,-2.172 -25.63,-6.77 -46.07,-6.77 -20.33,0 -41.32,3.559 -45.82,4.95 -1.19,4.25 -2.97,18.668 -2.97,41.269 l 0,139.051 c 0,23.891 -2.02,29.828 -5.66,32.641 -6.5,5.777 -38.71,5.937 -42.36,5.937 -0.34,0 -34.84,-0.129 -42.6,-5.629 -3.46,-3.039 -5.11,-8.719 -5.11,-32.949 l 0,-109.07 c 0,-54.192 8.02,-123.993 18.82,-136.332 10.36,-11.547 57.86,-17.598 99.43,-17.598 35.64,0 57.86,6.238 72.55,10.359 7.2,2.02 12.88,3.61 17.1,3.61 0.77,0 1.14,-0.059 1.22,-0.02 0.15,-0.18 0.54,-0.719 1.15,-2.031 l 1.59,-3.149 c 3.02,-6.769 9.58,-6.769 11.75,-6.769 14.54,0 44.81,8.609 52.31,19.078 7.97,14.32 13.11,67.359 13.11,135.133 l 0,106.789 c 0,23.891 -2.01,29.828 -5.65,32.641"
         style="fill:#1d4f45;fill-opacity:1;fill-rule:nonzero;stroke:none"
         id="path28"
         inkscape:connector-curvature="0" /><path
         d="m 1827.81,454.32 c 0,-35.218 -2.83,-62.621 -4.62,-69.859 -5.73,-2.449 -26.19,-8.051 -55.59,-8.051 -33.7,0 -47.65,5.871 -48.9,6.649 -1.98,3.57 -8.17,31.222 -8.17,69.25 0,32.25 5.18,64.222 7.8,68.472 0.06,0.071 7.68,7.16 48.41,7.16 23.02,0 50.53,-4.91 56.31,-7.402 1.58,-6.039 4.76,-30.828 4.76,-66.219 z m 43.44,265.926 c -0.33,0 -34.72,-0.121 -41.75,-5.605 -2.84,-2.496 -5.39,-6.887 -5.39,-32.965 l 0,-89.727 c 0,-3.398 -1.03,-4.129 -1.12,-4.269 -1.84,0 -5.04,1.519 -9.1,3.441 -11.58,5.43 -30.97,14.57 -70.85,14.57 -53.2,0 -86.22,-9.972 -95.36,-19.839 -9.74,-10.543 -20.6,-68.211 -20.6,-134.09 0,-59.922 9.49,-120.352 20.87,-132.121 8.66,-8.321 43.7,-20.68 104.8,-20.68 44.43,0 63.33,9.211 74.6,14.738 4.25,2.051 7.19,3.492 10.02,3.762 0.2,-0.391 0.45,-0.91 0.81,-1.621 l 4.18,-6.918 c 3.39,-6.113 10.88,-7.113 27.47,-7.113 27.37,0 34.61,2.601 38.14,7.152 1.42,1.66 8.43,11.328 8.43,40.269 l 0,332.446 c 0,23.734 -1.9,29.91 -5.69,33.179 -6.83,5.344 -38.12,5.391 -39.46,5.391"
         style="fill:#1d4f45;fill-opacity:1;fill-rule:nonzero;stroke:none"
         id="path30"
         inkscape:connector-curvature="0" /><path
         d="m 2050.57,530.5 c 2.42,1.379 18.92,5.441 48,5.719 28.45,0 43.62,-3.391 45.44,-4.207 0.81,-1.242 3.02,-7.84 3.02,-23.16 0,-11.102 -1.79,-19.34 -2.66,-21.832 -4.79,-1.571 -21.77,-5.301 -45.59,-5.54 -17.71,0 -45.44,2.711 -51.49,5.399 -0.6,2.082 -1.55,7.992 -1.55,19.961 0,18.211 4.39,23.18 4.83,23.66 z m -1.69,-108.121 c 14.97,-2.469 39.79,-5.02 58.22,-5.02 1.82,0 3.62,0.032 5.22,0.082 28.5,0.457 87.33,6.438 98.45,16.75 8.01,8.84 13.99,47.161 13.99,75.52 0,35.16 -10.11,68.309 -17.29,76.508 -11.01,12.941 -47.66,19.472 -108.96,19.472 -46.04,0 -104.05,-3.113 -119.1,-18.16 -8.4,-9.242 -20.84,-56.09 -20.84,-127.222 0,-4.93 0.24,-120.829 21.56,-142.528 14.51,-14.89 77.62,-18.82 108.95,-18.82 72.74,0 120.35,15.988 124.85,25.32 1.28,4.438 -1.19,23.039 -3.36,31.949 -0.65,2.661 -6.6,26.211 -14.31,28.372 l -2.72,0.429 c -2.23,0 -5.24,-0.64 -11.93,-2.09 -14.71,-3.191 -42.03,-9.121 -75.68,-9.121 -25.17,0 -51.6,4.668 -55.33,7.532 -2.39,3.296 -5.2,23.007 -4.86,39.558 0,0.668 0.03,1.18 0.04,1.551 0.79,0.039 2.3,-0.039 3.1,-0.082"
         style="fill:#1d4f45;fill-opacity:1;fill-rule:nonzero;stroke:none"
         id="path32"
         inkscape:connector-curvature="0" /><path
         d="m 2467.02,701.758 c -4.3,7.414 -35.86,18.137 -81.63,18.137 -30.1,0 -66.69,-5.426 -75.56,-14.313 -10.49,-9.602 -15.26,-47.273 -15.26,-78.254 l 0,-14.246 c 0,-3.062 -0.34,-8.551 -0.62,-12.352 -1.53,-0.089 -3.39,-0.191 -5.36,-0.191 l -6.56,0 c -16.64,0 -23.42,-1.508 -26.36,-5.359 -3.56,-3.551 -5.38,-13.102 -5.38,-28.371 0,-9.918 1.17,-25.911 4.2,-31.09 3.69,-4.949 11.47,-5.199 23.83,-5.199 l 6.57,0 c 2.1,0 4.21,-0.149 5.92,-0.309 0.18,-1.633 0.32,-3.652 0.32,-5.652 l 0,-184.18 c 0,-22.32 1.26,-29.758 5.96,-33.367 6.05,-4.274 32.41,-5.203 41.19,-5.203 0.32,0 32.59,0.043 39.74,5.621 3.54,3.09 5.11,8.582 5.11,32.949 l 0,184.18 c 0,2.031 0.16,4.089 0.35,5.742 1.63,0.129 3.68,0.219 5.9,0.219 l 23.41,0 c 21.91,0 26.99,1.378 30.79,5.332 3.42,4.777 4.65,21.476 4.65,31.539 0,23 -3.68,26.679 -5.05,28.05 -1.27,1.278 -5.08,5.098 -29.82,5.098 l -27.97,0 c -2.24,0 -4.34,0.109 -5.92,0.242 -0.02,0.438 -0.06,0.93 -0.06,1.438 l 0,25.109 c 0,9.363 0.99,13.621 1.51,15.231 1.72,0.472 6.62,1.312 19.31,1.312 13.66,0 26.47,-1.312 34.96,-2.18 4.31,-0.453 7.47,-0.742 9.04,-0.742 l 1.63,0.082 2.18,0.668 c 2.4,1.242 8.6,6.16 14.23,25.805 l 0.35,1.34 c 6.55,23.242 6.64,29.125 4.4,32.914"
         style="fill:#1d4f45;fill-opacity:1;fill-rule:nonzero;stroke:none"
         id="path34"
         inkscape:connector-curvature="0" /><path
         d="m 2558.71,530.5 c 2.41,1.379 18.95,5.441 48,5.719 28.45,0 43.65,-3.391 45.44,-4.207 0.85,-1.242 3.02,-7.84 3.02,-23.16 0,-11.102 -1.77,-19.34 -2.65,-21.832 -4.8,-1.571 -21.77,-5.301 -45.57,-5.54 -17.73,0 -45.46,2.711 -51.52,5.399 -0.61,2.082 -1.54,7.992 -1.54,19.961 0,18.211 4.39,23.18 4.82,23.66 z m -1.68,-108.121 c 14.97,-2.469 39.77,-5.02 58.21,-5.02 1.83,0 3.62,0.032 5.25,0.082 28.49,0.457 87.29,6.438 98.45,16.75 7.99,8.84 13.98,47.161 13.98,75.52 0,35.16 -10.12,68.309 -17.28,76.508 -11.03,12.941 -47.67,19.472 -109,19.472 -46.02,0 -104.03,-3.113 -119.06,-18.16 -8.42,-9.242 -20.88,-56.09 -20.88,-127.222 0,-4.93 0.26,-120.829 21.6,-142.528 14.49,-14.89 77.6,-18.82 108.95,-18.82 72.7,0 120.32,15.988 124.83,25.32 1.26,4.438 -1.19,23.039 -3.34,31.949 -0.65,2.661 -6.63,26.211 -14.33,28.372 l -2.74,0.429 c -2.21,0 -5.22,-0.64 -11.9,-2.09 -14.7,-3.191 -42.05,-9.121 -75.67,-9.121 -25.18,0 -51.62,4.668 -55.35,7.532 -2.38,3.296 -5.21,23.007 -4.86,39.558 0,0.668 0.02,1.18 0.06,1.551 0.76,0.039 2.29,-0.039 3.08,-0.082"
         style="fill:#1d4f45;fill-opacity:1;fill-rule:nonzero;stroke:none"
         id="path36"
         inkscape:connector-curvature="0" /><path
         d="m 2932.73,605.691 c -41.41,0 -61.45,-8.543 -74.71,-14.191 -5.58,-2.391 -9.6,-4.102 -13.58,-4.102 l -0.03,0 c -0.04,0.071 -0.58,0.532 -1.65,2.731 l -1.76,3.91 c -1.5,2.961 -4.69,6.5 -11.36,6.5 -11.34,0 -43.65,-6.23 -52.66,-18.66 -6.63,-12.59 -11.12,-50.84 -12.39,-102.859 -0.22,-9.782 -0.35,-20.04 -0.35,-30.711 l 0,-107.93 c 0,-22.57 1.2,-29.719 5.65,-33.18 6.89,-5.347 41.7,-5.39 42.05,-5.39 5.95,0 35.91,0.261 42.61,5.621 2.83,2.511 5.39,6.871 5.39,32.949 l 0,141.34 c 0,19.211 1.25,33.871 2.28,38.851 6.12,2.168 26.67,7.102 45.37,7.102 20.68,0 41.34,-3.711 45.85,-5.242 1.25,-4.2 3.22,-18.84 3.22,-40.711 l 0,-141.34 c 0,-22.57 1.25,-29.699 5.71,-33.18 6.86,-5.347 41.69,-5.39 42.02,-5.39 8.51,0 36.74,0.402 42.32,5.39 3.92,3.051 5.68,8.563 5.68,33.18 l 0,108.5 c 0,54.422 -8.17,124.293 -19.02,136.23 -9.61,11.153 -55.69,20.582 -100.64,20.582"
         style="fill:#1d4f45;fill-opacity:1;fill-rule:nonzero;stroke:none"
         id="path38"
         inkscape:connector-curvature="0" /><path
         d="m 3242.92,486.762 -3.31,0.629 c -5.89,0.98 -12.3,2.007 -18.75,3.05 -16.74,2.707 -41.65,6.731 -47.55,9.207 -0.7,1.461 -1.89,5.391 -1.89,12.321 0,9.23 1.25,11.293 1.09,11.312 2.91,1.739 19.79,4.957 42.01,4.957 l 1.35,0 c 23.65,0 56.07,-4.957 75.45,-7.918 10.52,-1.609 15.9,-2.332 19.18,-2.34 3.37,0.309 9.01,0.829 17.99,32.661 0.32,1.097 8.18,27.339 1.8,34.449 -6.32,7.398 -51.25,20.601 -118.35,20.601 -42.36,0 -97.33,-5.519 -113.02,-21.23 -12.3,-13.09 -12.93,-62.91 -12.93,-72.77 0,-31.82 6.87,-62.191 15.63,-69.132 13.31,-10.52 46.35,-16.68 81.34,-23.18 l 2.08,-0.399 c 8.79,-1.621 18.05,-3.25 26.96,-4.832 17.72,-3.128 39.48,-6.976 44.36,-8.308 0.51,-1.91 1.23,-6.531 1.23,-15.199 0,-6.032 -0.94,-9.871 -1.57,-11.571 -5.71,-1.66 -25.69,-3.531 -38.95,-3.531 -28.05,0 -62.95,5.59 -86.05,9.32 -12.81,2.039 -19.11,3.02 -22.41,3.02 l -2.4,-0.207 c -9.75,-2.281 -17.35,-24.684 -19.42,-32.973 -1.93,-7.07 -6.13,-31.847 -1.42,-38.398 5.46,-6.11 59.58,-17.34 131.7,-17.34 53.92,0 94.95,6.769 104.61,17.391 7.95,9.019 16.48,41.109 16.48,77.136 0,33.364 -5.71,63.282 -13.6,71.211 -7.74,7.723 -34.68,13.121 -81.64,22.063"
         style="fill:#1d4f45;fill-opacity:1;fill-rule:nonzero;stroke:none"
         id="path40"
         inkscape:connector-curvature="0" /><path
         d="m 3466.89,595.148 c -6.82,5.332 -41.96,5.391 -42.31,5.391 -5.92,0 -35.91,-0.238 -42.61,-5.629 -3.46,-3.039 -5.11,-8.719 -5.11,-32.949 l 0,-221.582 c 0,-22.57 1.22,-29.699 5.68,-33.18 6.87,-5.347 41.68,-5.39 42.04,-5.39 8.52,0 36.75,0.402 42.31,5.39 3.93,3.051 5.7,8.563 5.7,33.18 l 0,221.582 c 0,22.598 -1.23,29.73 -5.7,33.187"
         style="fill:#1d4f45;fill-opacity:1;fill-rule:nonzero;stroke:none"
         id="path42"
         inkscape:connector-curvature="0" /><path
         d="m 3466.52,709.156 c -5.09,3.832 -27.65,5.883 -41.94,5.883 -13.84,0 -36.59,-2.109 -42.34,-6.496 -5.58,-5.563 -6.82,-28.762 -6.82,-37.219 0,-8.484 1.36,-33.785 6.83,-38.094 4.96,-4.941 32.76,-6.492 42.33,-6.492 9.66,0 37.65,1.551 43.13,7.063 2.98,3.73 6.29,19.949 6.29,37.246 0,15.926 -2.91,32.883 -6.35,37.058 l -1.13,1.051"
         style="fill:#1d4f45;fill-opacity:1;fill-rule:nonzero;stroke:none"
         id="path44"
         inkscape:connector-curvature="0" /><path
         d="m 3605.63,530.5 c 2.41,1.379 18.89,5.441 47.97,5.719 28.46,0 43.67,-3.391 45.45,-4.207 0.83,-1.242 3.02,-7.84 3.02,-23.16 0,-11.102 -1.77,-19.34 -2.67,-21.832 -4.78,-1.571 -21.75,-5.301 -45.56,-5.54 -17.72,0 -45.45,2.711 -51.51,5.399 -0.58,2.082 -1.56,7.992 -1.56,19.961 0,18.211 4.42,23.18 4.86,23.66 z m 145.69,-145.898 -2.76,0.429 c -2.2,0 -5.23,-0.64 -11.89,-2.09 -14.71,-3.191 -42.05,-9.121 -75.7,-9.121 -25.18,0 -51.6,4.668 -55.33,7.532 -2.4,3.296 -5.2,23.007 -4.87,39.558 0,0.668 0.02,1.18 0.05,1.551 0.79,0.039 2.3,-0.039 3.12,-0.082 14.97,-2.469 39.76,-5.02 58.2,-5.02 1.83,0 3.62,0.032 5.22,0.082 28.53,0.457 87.34,6.438 98.48,16.75 7.98,8.84 13.97,47.161 13.97,75.52 0,35.16 -10.1,68.309 -17.3,76.508 -11,12.941 -47.64,19.472 -108.95,19.472 -46.07,0 -104.06,-3.113 -119.12,-18.16 -8.37,-9.242 -20.82,-56.09 -20.82,-127.222 0,-4.93 0.24,-120.829 21.57,-142.528 14.49,-14.89 77.61,-18.82 108.94,-18.82 72.7,0 120.31,15.988 124.85,25.32 1.28,4.438 -1.18,23.039 -3.35,31.949 -0.65,2.661 -6.6,26.211 -14.31,28.372"
         style="fill:#1d4f45;fill-opacity:1;fill-rule:nonzero;stroke:none"
         id="path46"
         inkscape:connector-curvature="0" /><path
         d="m 2261.28,1603.01 c -25.04,24.98 -159.39,62.22 -369.6,62.22 -215.68,0 -347.27,-33.78 -369.69,-57.71 -26.04,-26.59 -61.75,-178.3 -61.75,-369.22 0,-202.33 37.57,-338.12 60.91,-362.089 23.26,-25.738 134.29,-64.762 370.53,-64.762 249.6,0 346.27,37.274 368.71,62.188 25.06,26.543 53.62,160.683 53.62,364.663 0,205.06 -28.56,341.72 -52.73,364.71"
         style="fill:#4dbd38;fill-opacity:1;fill-rule:nonzero;stroke:none"
         id="path48"
         inkscape:connector-curvature="0" /><path
         d="m 2038.71,1465.96 c -6.06,6.28 -12.52,38.29 -39.33,52.59 -26.86,14.42 -86.48,46.7 -208.25,3.97 -107.4,-37.55 -246.65,-159.54 -192.23,-361.56 50.15,-186.593 260.06,-257.288 390.31,-211.632 130.17,45.61 237.88,220.102 184.22,373.062 -35.49,101.45 -128.68,137.15 -134.72,143.57 z m -163.69,-42.12 c -121.43,-46.13 -165.37,-176.4 -132,-262.69 32.32,-83.58 118.56,-156.86 220.88,-121 102.37,35.85 174.64,173.2 137.99,278 -11.8,33.72 -30.97,59.56 -54.22,78.5 -39.67,31.99 -68.49,24.36 -89.72,26.47 -19.32,1.77 -46.11,14.65 -82.93,0.72"
         style="fill:#ffffff;fill-opacity:1;fill-rule:evenodd;stroke:none"
         id="path50"
         inkscape:connector-curvature="0" /><path
         d="M 109.77,12.8398 C 109.77,8 109.645,3.80859 108.629,3.05078 107.734,2.41016 102.523,1.89844 96.9336,1.89844 c -5.2109,0 -11.4414,0.51172 -12.2031,1.15234 -0.8867,0.75781 -1.1407,4.82813 -1.1407,9.78902 l 0,155.4492 c 0,4.063 0.6329,8.891 1.6485,9.91 1.0156,1.02 5.8476,1.653 9.914,1.653 l 89.4807,0 c 3.558,0 6.867,-0.25 7.375,-0.762 0.508,-0.641 0.887,-6.231 0.887,-10.168 0,-4.192 -0.508,-9.531 -0.887,-10.16 -0.508,-0.774 -3.688,-0.903 -7.375,-0.903 l -70.285,0 c -1.782,0 -4.45,-0.379 -4.957,-0.757 -0.508,-0.383 -0.637,-3.051 -0.637,-4.832 l 0,-41.688 c 0,-1.91 0.254,-4.453 0.762,-4.832 0.382,-0.379 3.179,-0.762 4.832,-0.762 l 48.172,0 c 3.687,0 6.867,-0.129 7.375,-0.769 0.503,-0.629 0.886,-6.0901 0.886,-10.1604 0,-4.3203 -0.383,-9.6602 -0.886,-10.2969 -0.637,-0.6328 -3.563,-0.8906 -7.375,-0.8906 l -47.161,0 c -1.648,0 -4.32,-0.3828 -4.828,-0.7617 -0.508,-0.3789 -0.761,-2.918 -0.761,-4.6992 l 0,-64.5704"
         style="fill:#4dbd38;fill-opacity:1;fill-rule:nonzero;stroke:none"
         id="path52"
         inkscape:connector-curvature="0" /><path
         d="m 201.477,61.1406 c 0,46.6404 3.304,61.2574 4.828,63.1684 1.91,2.293 9.535,4.703 14.492,4.703 1.016,0 1.648,-0.512 2.035,-1.274 l 0.637,-1.136 c 0.886,-1.911 1.648,-2.551 2.918,-2.551 2.543,0 24.148,6.871 33.687,6.871 3.305,0 4.574,-4.203 5.082,-11.192 0.508,-6.101 -0.129,-8.011 -1.523,-8.769 -1.02,-0.512 -3.813,-0.891 -7.754,-0.891 -9.156,0 -24.656,-1.398 -26.695,-3.429 -1.27,-1.153 -2.157,-17.5394 -2.157,-30.0004 l 0,-64.5625 c 0,-4.45701 -0.257,-8.26951 -1.019,-8.90622 -0.766,-0.76172 -6.481,-1.27344 -11.695,-1.27344 -5.465,0 -11.055,0.64062 -11.817,1.27344 -0.766,0.63671 -1.019,4.19921 -1.019,8.90622 l 0,49.0625"
         style="fill:#4dbd38;fill-opacity:1;fill-rule:nonzero;stroke:none"
         id="path54"
         inkscape:connector-curvature="0" /><path
         d="m 283.926,118.84 c 0,4.449 0.254,8.262 0.887,8.898 0.89,0.762 6.613,1.274 11.824,1.274 5.336,0 10.929,-0.641 11.82,-1.274 0.762,-0.636 0.891,-4.187 0.891,-8.898 l 0,-106.7619 c 0,-4.45701 -0.129,-8.26951 -0.891,-8.90622 -0.891,-0.76172 -6.609,-1.27344 -11.82,-1.27344 -5.336,0 -10.934,0.64062 -11.696,1.27344 -0.761,0.63671 -1.015,4.19921 -1.015,8.90622 l 0,106.7619 z m -0.762,43.859 c 0,5.84 0.891,10.801 1.524,11.563 0.761,0.508 6.992,1.398 11.949,1.398 5.211,0 11.183,-0.89 11.949,-1.398 0.508,-0.641 1.652,-5.59 1.652,-11.563 0,-6.23 -1.273,-10.937 -1.652,-11.437 -0.637,-0.512 -6.481,-1.41 -11.949,-1.41 -5.465,0 -11.317,0.898 -11.949,1.41 -0.508,0.5 -1.524,5.207 -1.524,11.437"
         style="fill:#4dbd38;fill-opacity:1;fill-rule:nonzero;stroke:none"
         id="path56"
         inkscape:connector-curvature="0" /><path
         d="m 399.434,73.2109 c 14.875,0.1289 25.925,2.5391 27.328,3.5586 1.269,1.4024 2.539,7.6289 2.539,14.8711 0,10.9294 -1.524,16.3984 -2.539,17.4104 -1.907,1.789 -11.188,3.687 -27.707,3.687 -15.891,-0.129 -27.711,-2.156 -29.235,-3.808 -2.039,-1.91 -4.578,-13.0902 -4.578,-21.2308 0,-5.3398 0.254,-8.7695 1.274,-9.9101 3.429,-3.3086 25.925,-4.5782 32.918,-4.5782 z M 341.98,68.7617 c 0,35.4573 6.36,53.5193 8.262,55.5473 4.324,3.812 19.957,6.613 48.938,6.613 29.488,0 41.562,-3.692 44.613,-6.992 2.293,-2.551 5.973,-17.289 5.973,-31.6487 0,-15.8907 -3.172,-27.2032 -5.211,-29.4922 -3.176,-2.9297 -26.309,-6.0977 -42.071,-6.2305 -8.132,-0.1289 -22.371,1.0195 -33.046,2.9219 -3.684,0.3789 -4.321,-0.6289 -4.321,-3.0508 -0.254,-9.3984 1.27,-27.9609 4.196,-30.8789 2.917,-3.0508 22.113,-5.0899 31.773,-5.0899 22.754,0 37.625,5.0899 39.019,4.711 0.637,-0.2617 2.547,-4.3203 3.309,-7.6328 0.887,-3.4297 1.395,-8.76957 1.141,-9.39847 -0.508,-1.15235 -18.934,-7.500005 -47.793,-7.500005 -21.989,0 -42.449,3.550785 -46.391,7.500005 -7.375,7.62107 -8.391,50.07027 -8.391,60.62107"
         style="fill:#4dbd38;fill-opacity:1;fill-rule:nonzero;stroke:none"
         id="path58"
         inkscape:connector-curvature="0" /><path
         d="m 478.551,68.25 c 0,27.9688 2.289,50.34 4.828,55.93 1.781,2.672 10.426,4.832 14.617,4.832 0.766,0 1.399,-0.25 1.906,-1.274 l 0.508,-1.136 c 1.02,-2.043 1.781,-3.18 3.434,-3.18 4.703,0 13.73,7.5 38.261,7.5 20.715,0 39.782,-4.32 42.833,-7.633 3.429,-3.559 6.863,-28.9804 6.863,-54.9101 l 0,-56.3008 c 0,-4.45701 -0.125,-8.26951 -0.887,-8.90622 -0.894,-0.76172 -6.613,-1.27344 -11.82,-1.27344 -5.344,0 -10.934,0.64062 -11.696,1.27344 -0.761,0.63671 -1.015,4.0664 -1.015,8.90622 l 0,64.8203 c 0,14.6133 -1.278,27.5816 -2.797,29.1136 -1.523,1.386 -16.273,4.187 -28.981,4.187 -12.203,0 -26.824,-2.801 -28.472,-4.187 -1.145,-1.153 -2.035,-16.7932 -2.035,-29.1136 l 0,-64.8203 c 0,-4.45701 -0.254,-8.26951 -1.016,-8.90622 -0.891,-0.76172 -6.48,-1.27344 -11.82,-1.27344 -5.34,0 -10.93,0.64062 -11.696,1.27344 -0.761,0.63671 -1.015,4.19921 -1.015,8.90622 l 0,56.1719"
         style="fill:#4dbd38;fill-opacity:1;fill-rule:nonzero;stroke:none"
         id="path60"
         inkscape:connector-curvature="0" /><path
         d="m 681.594,20.9688 c 18.426,0 31.648,3.8203 33.804,5.4726 1.145,1.0078 2.547,19.1875 2.547,41.0469 0,19.9609 -1.402,36.1017 -2.547,37.3707 -2.668,2.422 -22.878,5.469 -34.312,5.469 -19.07,0 -26.188,-2.668 -28.473,-5.219 -2.418,-2.281 -5.09,-23.1285 -5.09,-39.1402 0,-20.8477 3.434,-38.1407 5.09,-39.9102 1.649,-1.9102 8.77,-5.0898 28.981,-5.0898 z M 716.672,169.68 c 0,4.449 0.254,8.261 1.019,8.902 0.762,0.637 6.481,1.27 11.567,1.27 5.211,0 10.168,-0.633 10.93,-1.27 0.757,-0.641 1.011,-4.191 1.011,-8.902 l 0,-154.9417 c 0,-7.36721 -1.394,-10.54689 -2.027,-11.30861 -0.637,-0.75781 -2.801,-1.53125 -10.426,-1.53125 -5.086,0 -6.48,0.39062 -6.988,1.27344 -0.254,0.25781 -1.274,2.28906 -1.656,3.05859 -0.633,1.26953 -1.016,2.03125 -2.157,2.03125 -5.597,0 -12.711,-7.621095 -39.406,-7.621095 -28.851,0 -41.816,5.078125 -44.867,8.257815 -3.305,3.43356 -8.262,28.72266 -8.262,56.94136 0,30.25 5.336,53.8902 8.262,56.9412 3.051,3.438 15,8.141 42.449,8.141 23.52,0 33.688,-7.371 37.375,-7.371 1.902,0 3.176,1.519 3.176,4.32 l 0,41.809"
         style="fill:#4dbd38;fill-opacity:1;fill-rule:nonzero;stroke:none"
         id="path62"
         inkscape:connector-curvature="0" /><path
         d="m 769.859,17.2891 c 1.27,4.6992 3.688,8.5117 4.954,8.7695 1.527,0.3828 22.242,-4.707 45.25,-4.707 6.738,0 23.007,0.7578 25.546,2.289 0.895,0.6289 2.418,5.4688 2.418,11.4375 0,6.3633 -0.632,12.4532 -2.164,13.7305 -1.777,1.5195 -17.41,4.832 -33.679,8.7695 -16.016,3.8125 -31.012,6.9922 -35.973,11.1836 -2.664,2.418 -5.336,13.7266 -5.336,26.0586 0,7.6287 1.016,24.2817 4.574,27.8397 4.703,4.57 23.008,8.262 46.012,8.262 28.598,0 44.359,-5.602 45.379,-6.871 0.637,-0.891 0,-5.969 -1.02,-9.153 -1.269,-4.316 -2.922,-8.636 -4.066,-8.769 -1.524,-0.25 -22.367,4.453 -39.02,4.32 -13.089,0 -24.914,-1.898 -27.203,-3.808 -1.523,-1.403 -2.285,-6.8597 -2.285,-11.5707 0,-5.7187 1.27,-10.1719 2.539,-11.3086 2.672,-2.4101 19.574,-5.5898 31.145,-8.1328 18.679,-4.4492 34.57,-8.0078 37.367,-11.0586 2.418,-2.539 4.957,-14.2422 4.957,-28.4805 0,-14.1015 -3.941,-26.69136 -6.356,-29.23042 -2.543,-2.78907 -18.937,-6.218755 -42.453,-6.218755 -33.175,0 -50.968,5.460935 -51.601,6.218755 -0.516,0.89062 -0.133,6.35942 1.015,10.42972"
         style="fill:#4dbd38;fill-opacity:1;fill-rule:nonzero;stroke:none"
         id="path64"
         inkscape:connector-curvature="0" /><path
         d="m 1007.2,21.4805 c 19.95,0 29.49,3.0508 31.52,5.0781 2.67,2.6719 5.08,16.5312 5.08,38.5195 0,22.4922 -2.28,38.2619 -4.7,40.5429 -3.05,2.418 -13.98,4.961 -31.9,4.961 -17.032,0 -28.473,-2.543 -30.634,-4.961 -2.035,-2.281 -5.847,-18.3007 -5.847,-40.5429 0,-22.1172 3.304,-36.6093 5.215,-38.5195 2.031,-2.0273 11.054,-5.0781 31.266,-5.0781 z m -58.723,43.5976 c 0,33.5508 5.843,54.4019 9.277,57.7029 3.051,2.918 19.32,8.141 49.446,8.141 27.45,0 47.03,-4.832 50.97,-8.391 3.56,-3.051 7.75,-26.0622 7.75,-57.4529 0,-30.7578 -5.21,-53.2578 -8.64,-56.43747 -2.92,-3.05079 -19.45,-8.000005 -50.08,-8.000005 -30.634,0 -46.774,5.078125 -50.208,8.128905 -3.558,3.05077 -8.515,22.49997 -8.515,56.30857"
         style="fill:#4dbd38;fill-opacity:1;fill-rule:nonzero;stroke:none"
         id="path66"
         inkscape:connector-curvature="0" /><path
         d="m 1133.34,12.0781 c 0,-4.5781 -0.25,-8.26951 -0.89,-8.90622 -0.77,-0.63282 -5.98,-1.27344 -11.06,-1.27344 -5.09,0 -10.68,0.64062 -11.57,1.27344 -0.76,0.63671 -1.01,4.32812 -1.01,8.90622 l 0,94.3129 c 0,1.769 -0.26,3.937 -0.38,4.058 -0.13,0.133 -2.29,0.391 -4.2,0.391 l -4.58,0 c -3.3,0 -5.59,0.121 -6.1,0.879 -0.38,0.64 -1.01,4.453 -1.01,8.519 0,4.321 0.63,7.121 1.14,7.633 0.64,0.758 3.18,1.141 6.99,1.141 l 4.58,0 c 1.9,0 3.94,0.129 4.07,0.379 0.12,0.379 0.5,4.07 0.5,5.847 l 0,9.532 c 0,18.691 2.67,29.492 5.34,31.91 3.05,3.172 18.81,5.082 29.11,5.082 15.89,0 25.93,-3.563 26.56,-4.582 0.64,-1.008 -1.01,-7.121 -1.4,-9.02 -1.52,-5.461 -3.17,-6.988 -3.42,-7.121 -0.77,-0.25 -8.39,1.141 -18.18,1.141 -8.26,0 -12.2,-0.758 -13.35,-1.77 -1.01,-0.89 -2.16,-4.961 -2.16,-12.59 l 0,-15.511 c 0,-1.258 0.25,-2.789 0.38,-2.918 0.26,-0.25 2.29,-0.379 4.19,-0.379 l 15.26,0 c 4.19,0 7.37,-0.512 7.88,-1.024 0.51,-0.5 1.01,-3.429 1.01,-7.617 0,-4.199 -0.63,-8.012 -1.14,-8.652 -0.63,-0.629 -3.68,-0.879 -7.88,-0.879 l -14.1,0 c -1.79,0 -3.95,-0.129 -4.07,-0.391 -0.26,-0.121 -0.51,-2.289 -0.51,-4.058 l 0,-94.3129"
         style="fill:#4dbd38;fill-opacity:1;fill-rule:nonzero;stroke:none"
         id="path68"
         inkscape:connector-curvature="0" /><path
         d="m 1244.36,106.012 c 0,1.898 -0.13,4.187 -0.39,4.57 -0.12,0.129 -2.29,0.379 -4.06,0.379 l -4.32,0 c -3.06,0 -5.6,0.258 -5.98,0.891 -0.38,0.507 -1.02,4.32 -1.02,8.007 0,3.692 0.64,7.75 1.15,8.391 0.5,0.629 2.92,0.762 5.97,0.762 l 5.21,0 c 1.78,0 3.82,0.25 3.94,0.508 0.26,0.25 0.51,2.289 0.51,4.062 l 0,19.066 c 0,4.321 0.26,8.262 1.02,8.903 0.76,0.629 6.1,1.269 10.8,1.269 4.83,0 10.04,-0.64 10.8,-1.398 0.77,-0.633 1.02,-4.07 1.02,-8.774 l 0,-19.066 c 0,-1.773 0.13,-3.812 0.38,-4.062 0.13,-0.258 2.29,-0.508 4.07,-0.508 l 19.83,0 c 3.56,0 6.48,-0.133 6.99,-0.762 0.38,-0.512 0.89,-4.699 0.89,-8.262 0,-3.816 -0.64,-7.629 -1.02,-8.136 -0.63,-0.762 -3.17,-0.891 -6.99,-0.891 l -19.7,0 c -1.78,0 -3.94,-0.25 -4.07,-0.379 -0.12,-0.383 -0.38,-2.672 -0.38,-4.57 l 0,-60.512 c 0,-14.1094 1.65,-21.6094 2.67,-22.6211 0.64,-0.8906 5.72,-1.3984 11.57,-1.3984 10.68,0 18.18,1.6484 19.19,1.5195 1.02,-0.25 2.67,-3.9414 3.43,-7.1211 1.15,-4.1875 1.78,-9.64843 1.4,-10.53906 -0.51,-1.14843 -11.57,-4.699215 -25.42,-4.699215 -15.76,0 -28.09,1.769535 -31.27,4.699215 -3.3,3.42969 -6.22,18.30076 -6.22,35.19926 l 0,65.4729"
         style="fill:#4dbd38;fill-opacity:1;fill-rule:nonzero;stroke:none"
         id="path70"
         inkscape:connector-curvature="0" /><path
         d="m 1331.75,169.68 c 0,4.32 0.26,8.39 1.02,8.902 0.77,0.637 6.48,1.27 11.57,1.27 5.08,0 10.17,-0.633 10.93,-1.27 0.76,-0.641 1.01,-4.191 1.01,-8.902 l 0,-41.692 c 0,-3.429 0.9,-4.566 3.44,-4.566 4.32,0 14.36,7.5 38.26,7.5 18.17,0 36.86,-3.563 40.16,-7.25 3.56,-3.942 6.99,-28.6017 6.99,-53.2501 l 0,-58.3438 c 0,-4.45701 -0.25,-8.26951 -1.01,-8.90622 -0.77,-0.76172 -6.49,-1.27344 -11.83,-1.27344 -5.33,0 -10.93,0.64062 -11.69,1.27344 -0.76,0.63671 -1.02,4.0664 -1.02,8.90622 l 0,64.8203 c 0,14.6133 -1.26,27.7036 -2.79,29.1136 -1.53,1.386 -16.15,4.187 -28.98,4.187 -12.2,0 -27.08,-2.801 -28.6,-4.187 -1.4,-1.024 -1.91,-16.7932 -1.91,-29.1136 l 0,-64.8203 c 0,-4.45701 -0.25,-8.26951 -1.02,-8.90622 -0.76,-0.76172 -6.48,-1.27344 -11.69,-1.27344 -5.46,0 -11.05,0.64062 -11.82,1.27344 -0.76,0.63671 -1.02,4.19921 -1.02,8.90622 l 0,157.6019"
         style="fill:#4dbd38;fill-opacity:1;fill-rule:nonzero;stroke:none"
         id="path72"
         inkscape:connector-curvature="0" /><path
         d="m 1535.3,73.2109 c 14.88,0.1289 25.93,2.5391 27.33,3.5586 1.27,1.4024 2.54,7.6289 2.54,14.8711 0,10.9294 -1.52,16.3984 -2.54,17.4104 -1.91,1.789 -11.18,3.687 -27.71,3.687 -15.89,-0.129 -27.71,-2.156 -29.23,-3.808 -2.04,-1.91 -4.58,-13.0902 -4.58,-21.2308 0,-5.3398 0.26,-8.7695 1.27,-9.9101 3.44,-3.3086 25.93,-4.5782 32.92,-4.5782 z m -57.45,-4.4492 c 0,35.4573 6.36,53.5193 8.26,55.5473 4.32,3.812 19.96,6.613 48.94,6.613 29.49,0 41.56,-3.692 44.61,-6.992 2.29,-2.551 5.97,-17.289 5.97,-31.6487 0,-15.8907 -3.17,-27.2032 -5.21,-29.4922 -3.17,-2.9297 -26.3,-6.0977 -42.07,-6.2305 -8.13,-0.1289 -22.37,1.0195 -33.04,2.9219 -3.69,0.3789 -4.32,-0.6289 -4.32,-3.0508 -0.26,-9.3984 1.27,-27.9609 4.19,-30.8789 2.92,-3.0508 22.11,-5.0899 31.77,-5.0899 22.76,0 37.63,5.0899 39.03,4.711 0.63,-0.2617 2.54,-4.3203 3.3,-7.6328 0.89,-3.4297 1.4,-8.76957 1.14,-9.39847 -0.5,-1.15235 -18.93,-7.500005 -47.79,-7.500005 -21.99,0 -42.45,3.550785 -46.39,7.500005 -7.37,7.62107 -8.39,50.07027 -8.39,60.62107"
         style="fill:#4dbd38;fill-opacity:1;fill-rule:nonzero;stroke:none"
         id="path74"
         inkscape:connector-curvature="0" /><path
         d="m 1685.06,1.89844 c -4.07,0 -8.9,0.64062 -9.91,1.66015 -1.02,0.89063 -1.65,5.83985 -1.65,9.91021 l 0,154.8202 c 0,4.063 0.63,9.02 1.65,9.91 1.01,1.02 5.84,1.653 9.91,1.653 l 91.01,0 c 3.69,0 6.99,-0.25 7.37,-0.762 0.64,-0.641 1.14,-6.102 1.14,-10.301 0,-4.059 -0.5,-9.527 -1.14,-10.16 -0.38,-0.641 -3.56,-0.77 -7.37,-0.77 l -71.69,0 c -1.65,0 -4.45,-0.379 -4.83,-0.757 -0.51,-0.512 -0.89,-3.051 -0.89,-4.832 l 0,-42.45 c 0,-1.91 0.38,-4.332 0.89,-4.832 0.38,-0.508 3.18,-0.886 4.83,-0.886 l 52.75,0 c 3.18,0 6.86,0 7.37,-0.762 0.64,-0.641 1.02,-6.1095 1.02,-10.1798 0,-4.0586 -0.38,-9.3985 -1.02,-10.1602 -0.51,-0.7617 -3.56,-0.8906 -7.37,-0.8906 l -52.62,0 c -1.65,0 -4.45,-0.3789 -4.96,-0.7578 -0.51,-0.3907 -0.76,-2.9297 -0.76,-4.711 L 1698.66,30 c 0,-1.9102 0.38,-4.4492 0.89,-4.7109 0.51,-0.6289 3.18,-0.8907 4.83,-0.8907 l 73.34,0 c 3.05,0 6.74,-0.1289 7.25,-0.7578 0.63,-0.6406 1.01,-6.3515 1.01,-10.5508 0,-4.19136 -0.38,-9.53121 -1.01,-10.30074 -0.39,-0.6289 -3.56,-0.89062 -7.25,-0.89062 l -92.66,0"
         style="fill:#4dbd38;fill-opacity:1;fill-rule:nonzero;stroke:none"
         id="path76"
         inkscape:connector-curvature="0" /><path
         d="m 1861.16,18.9414 c 18.18,0 24.66,2.2891 26.32,4.0586 1.27,1.1484 3.3,8.6484 3.3,29.2383 0,3.8125 -0.77,5.4726 -2.16,5.8515 -2.8,0.7618 -10.81,2.6602 -29.24,2.6602 -14.61,0 -26.31,-2.5391 -27.58,-3.6797 -1.9,-1.5312 -3.3,-8.0117 -3.3,-15.8906 0,-7.3711 1.91,-16.9102 3.56,-18.4297 1.65,-1.5195 13.09,-3.9414 29.1,-3.8086 z m 28.09,-13.22265 c -0.63,1.01172 -1.14,1.39063 -2.16,1.39063 -3.3,0 -17.03,-6.468755 -35.46,-6.468755 -18.05,0 -33.55,3.550785 -36.86,6.730465 -3.31,3.68751 -7.25,18.93751 -7.25,34.69921 0,9.0195 1.53,24.7891 4.96,28.2188 3.43,3.4297 25.55,7.6328 42.46,7.6328 14.86,0 30.37,-2.8008 32.92,-1.793 2.28,0.6406 3.3,4.3203 3.3,10.4297 0,9.2812 -1.78,18.6794 -3.18,20.0824 -1.65,1.781 -13.98,4.32 -31.52,4.32 -18.43,0 -35.72,-4.32 -36.86,-4.191 -1.02,0.25 -2.93,4.832 -3.81,8.511 -0.89,4.071 -1.4,8.52 -0.89,9.149 1.9,2.289 23.51,6.492 44.74,6.492 23.01,0 43.22,-3.434 47.66,-7.633 4.07,-4.187 7.37,-25.039 7.37,-57.3202 0,-20.0899 -3.17,-58.85942 -5.46,-60.89067 -1.65,-1.51954 -13.85,-3.17969 -16.52,-3.17969 -1.02,0 -2.04,0.89062 -2.55,2.04297 l -0.89,1.77734"
         style="fill:#4dbd38;fill-opacity:1;fill-rule:nonzero;stroke:none"
         id="path78"
         inkscape:connector-curvature="0" /><path
         d="m 1948.29,61.1406 c 0,46.6404 3.3,61.2574 4.83,63.1684 1.9,2.293 9.53,4.703 14.49,4.703 1.01,0 1.65,-0.512 2.03,-1.274 l 0.64,-1.136 c 0.89,-1.911 1.65,-2.551 2.92,-2.551 2.54,0 24.15,6.871 33.68,6.871 3.31,0 4.58,-4.203 5.09,-11.192 0.51,-6.101 -0.13,-8.011 -1.53,-8.769 -1.02,-0.512 -3.81,-0.891 -7.75,-0.891 -9.15,0 -24.66,-1.398 -26.69,-3.429 -1.27,-1.153 -2.16,-17.5394 -2.16,-30.0004 l 0,-64.5625 c 0,-4.45701 -0.26,-8.26951 -1.02,-8.90622 -0.76,-0.76172 -6.48,-1.27344 -11.7,-1.27344 -5.46,0 -11.05,0.64062 -11.81,1.27344 -0.77,0.63671 -1.02,4.19921 -1.02,8.90622 l 0,49.0625"
         style="fill:#4dbd38;fill-opacity:1;fill-rule:nonzero;stroke:none"
         id="path80"
         inkscape:connector-curvature="0" /><path
         d="m 2043.44,106.012 c 0,1.898 -0.12,4.187 -0.38,4.57 -0.13,0.129 -2.29,0.379 -4.07,0.379 l -4.32,0 c -3.05,0 -5.59,0.258 -5.97,0.891 -0.38,0.507 -1.02,4.32 -1.02,8.007 0,3.692 0.64,7.75 1.14,8.391 0.51,0.629 2.93,0.762 5.98,0.762 l 5.21,0 c 1.78,0 3.81,0.25 3.94,0.508 0.25,0.25 0.51,2.289 0.51,4.062 l 0,19.066 c 0,4.321 0.25,8.262 1.01,8.903 0.77,0.629 6.11,1.269 10.81,1.269 4.83,0 10.04,-0.64 10.8,-1.398 0.77,-0.633 1.02,-4.07 1.02,-8.774 l 0,-19.066 c 0,-1.773 0.13,-3.812 0.38,-4.062 0.13,-0.258 2.29,-0.508 4.07,-0.508 l 19.83,0 c 3.56,0 6.48,-0.133 6.99,-0.762 0.38,-0.512 0.89,-4.699 0.89,-8.262 0,-3.816 -0.64,-7.629 -1.02,-8.136 -0.64,-0.762 -3.18,-0.891 -6.99,-0.891 l -19.7,0 c -1.78,0 -3.94,-0.25 -4.07,-0.379 -0.13,-0.383 -0.38,-2.672 -0.38,-4.57 l 0,-60.512 c 0,-14.1094 1.65,-21.6094 2.67,-22.6211 0.64,-0.8906 5.72,-1.3984 11.56,-1.3984 10.68,0 18.18,1.6484 19.2,1.5195 1.01,-0.25 2.67,-3.9414 3.43,-7.1211 1.14,-4.1875 1.78,-9.64843 1.4,-10.53906 -0.51,-1.14843 -11.57,-4.699215 -25.42,-4.699215 -15.76,0 -28.09,1.769535 -31.27,4.699215 -3.31,3.42969 -6.23,18.30076 -6.23,35.19926 l 0,65.4729"
         style="fill:#4dbd38;fill-opacity:1;fill-rule:nonzero;stroke:none"
         id="path82"
         inkscape:connector-curvature="0" /><path
         d="m 2130.84,169.68 c 0,4.32 0.25,8.39 1.02,8.902 0.76,0.637 6.48,1.27 11.56,1.27 5.09,0 10.17,-0.633 10.94,-1.27 0.76,-0.641 1.01,-4.191 1.01,-8.902 l 0,-41.692 c 0,-3.429 0.89,-4.566 3.43,-4.566 4.33,0 14.37,7.5 38.27,7.5 18.17,0 36.86,-3.563 40.16,-7.25 3.56,-3.942 6.99,-28.6017 6.99,-53.2501 l 0,-58.3438 c 0,-4.45701 -0.26,-8.26951 -1.02,-8.90622 -0.76,-0.76172 -6.48,-1.27344 -11.82,-1.27344 -5.34,0 -10.93,0.64062 -11.69,1.27344 -0.76,0.63671 -1.02,4.0664 -1.02,8.90622 l 0,64.8203 c 0,14.6133 -1.27,27.7036 -2.8,29.1136 -1.52,1.386 -16.14,4.187 -28.98,4.187 -12.2,0 -27.07,-2.801 -28.59,-4.187 -1.4,-1.024 -1.91,-16.7932 -1.91,-29.1136 l 0,-64.8203 c 0,-4.45701 -0.26,-8.26951 -1.02,-8.90622 -0.76,-0.76172 -6.48,-1.27344 -11.69,-1.27344 -5.47,0 -11.06,0.64062 -11.82,1.27344 -0.77,0.63671 -1.02,4.19921 -1.02,8.90622 l 0,157.6019"
         style="fill:#4dbd38;fill-opacity:1;fill-rule:nonzero;stroke:none"
         id="path84"
         inkscape:connector-curvature="0" /><path
         d="m 2336.65,172.102 c 0,2.796 0.25,5.839 1.02,6.48 0.5,0.637 5.08,1.27 12.45,1.27 7.5,0 11.06,-0.633 12.08,-1.403 0.38,-0.25 1.77,-1.769 4.83,-6.347 l 79.95,-128.5122 c 0.89,-1.3906 1.77,-1.0117 1.77,0.5118 l 0,126.2184 c 0,4.321 0.39,7.879 1.02,8.508 0.77,0.641 6.1,1.024 10.81,1.024 4.83,0 9.65,-0.383 10.67,-1.024 0.51,-0.629 0.89,-4.058 0.89,-8.887 l 0,-160.28084 c 0,-2.67188 -0.38,-5.85157 -0.89,-6.48828 -0.63,-0.63282 -5.08,-1.27344 -12.32,-1.27344 -9.41,0 -12.21,1.02344 -12.85,1.40234 -1.14,0.89063 -2.66,2.55078 -4.95,5.84766 L 2361.94,135.371 c -0.89,1.52 -1.91,1.52 -1.91,-0.512 l 0,-123.8004 c 0,-4.32813 -0.25,-7.37891 -0.88,-8.00782 -0.89,-0.64062 -6.23,-1.15234 -10.94,-1.15234 -4.7,0 -9.91,0.51172 -10.67,1.15234 -0.64,0.62891 -1.02,3.8086 -1.02,8.89062 l 0.13,160.1606"
         style="fill:#4dbd38;fill-opacity:1;fill-rule:nonzero;stroke:none"
         id="path86"
         inkscape:connector-curvature="0" /><path
         d="m 2568.14,73.2109 c 14.88,0.1289 25.93,2.5391 27.33,3.5586 1.27,1.4024 2.54,7.6289 2.54,14.8711 0,10.9294 -1.52,16.3984 -2.54,17.4104 -1.91,1.789 -11.18,3.687 -27.71,3.687 -15.88,-0.129 -27.71,-2.156 -29.23,-3.808 -2.04,-1.91 -4.57,-13.0902 -4.57,-21.2308 0,-5.3398 0.25,-8.7695 1.26,-9.9101 3.44,-3.3086 25.93,-4.5782 32.92,-4.5782 z m -57.45,-4.4492 c 0,35.4573 6.36,53.5193 8.27,55.5473 4.32,3.812 19.95,6.613 48.93,6.613 29.49,0 41.56,-3.692 44.61,-6.992 2.29,-2.551 5.98,-17.289 5.98,-31.6487 0,-15.8907 -3.18,-27.2032 -5.21,-29.4922 -3.18,-2.9297 -26.31,-6.0977 -42.07,-6.2305 -8.14,-0.1289 -22.38,1.0195 -33.05,2.9219 -3.69,0.3789 -4.32,-0.6289 -4.32,-3.0508 -0.26,-9.3984 1.27,-27.9609 4.19,-30.8789 2.92,-3.0508 22.12,-5.0899 31.77,-5.0899 22.76,0 37.63,5.0899 39.03,4.711 0.63,-0.2617 2.54,-4.3203 3.3,-7.6328 0.89,-3.4297 1.4,-8.76957 1.15,-9.39847 -0.51,-1.15235 -18.94,-7.500005 -47.8,-7.500005 -21.98,0 -42.45,3.550785 -46.39,7.500005 -7.37,7.62107 -8.39,50.07027 -8.39,60.62107"
         style="fill:#4dbd38;fill-opacity:1;fill-rule:nonzero;stroke:none"
         id="path88"
         inkscape:connector-curvature="0" /><path
         d="m 2655.65,106.012 c 0,1.898 -0.12,4.187 -0.38,4.57 -0.12,0.129 -2.29,0.379 -4.06,0.379 l -4.33,0 c -3.05,0 -5.59,0.258 -5.97,0.891 -0.38,0.507 -1.02,4.32 -1.02,8.007 0,3.692 0.64,7.75 1.15,8.391 0.5,0.629 2.92,0.762 5.97,0.762 l 5.21,0 c 1.78,0 3.82,0.25 3.94,0.508 0.26,0.25 0.51,2.289 0.51,4.062 l 0,19.066 c 0,4.321 0.25,8.262 1.02,8.903 0.76,0.629 6.1,1.269 10.8,1.269 4.83,0 10.04,-0.64 10.8,-1.398 0.77,-0.633 1.02,-4.07 1.02,-8.774 l 0,-19.066 c 0,-1.773 0.13,-3.812 0.38,-4.062 0.13,-0.258 2.29,-0.508 4.07,-0.508 l 19.83,0 c 3.56,0 6.48,-0.133 6.99,-0.762 0.38,-0.512 0.89,-4.699 0.89,-8.262 0,-3.816 -0.64,-7.629 -1.02,-8.136 -0.63,-0.762 -3.17,-0.891 -6.99,-0.891 l -19.7,0 c -1.78,0 -3.94,-0.25 -4.07,-0.379 -0.12,-0.383 -0.38,-2.672 -0.38,-4.57 l 0,-60.512 c 0,-14.1094 1.65,-21.6094 2.67,-22.6211 0.64,-0.8906 5.72,-1.3984 11.57,-1.3984 10.67,0 18.17,1.6484 19.19,1.5195 1.02,-0.25 2.67,-3.9414 3.43,-7.1211 1.15,-4.1875 1.78,-9.64843 1.4,-10.53906 -0.51,-1.14843 -11.57,-4.699215 -25.42,-4.699215 -15.76,0 -28.09,1.769535 -31.27,4.699215 -3.31,3.42969 -6.23,18.30076 -6.23,35.19926 l 0,65.4729"
         style="fill:#4dbd38;fill-opacity:1;fill-rule:nonzero;stroke:none"
         id="path90"
         inkscape:connector-curvature="0" /><path
         d="m 2743.05,169.68 c 0,4.32 0.26,8.39 1.02,8.902 0.76,0.637 6.48,1.27 11.56,1.27 5.09,0 10.18,-0.633 10.94,-1.27 0.76,-0.641 1.01,-4.191 1.01,-8.902 l 0,-41.692 c 0,-3.429 0.9,-4.566 3.44,-4.566 4.32,0 14.36,7.5 38.26,7.5 18.17,0 36.86,-3.563 40.16,-7.25 3.56,-3.942 6.99,-28.6017 6.99,-53.2501 l 0,-58.3438 c 0,-4.45701 -0.25,-8.26951 -1.01,-8.90622 -0.77,-0.76172 -6.49,-1.27344 -11.83,-1.27344 -5.33,0 -10.93,0.64062 -11.69,1.27344 -0.76,0.63671 -1.02,4.0664 -1.02,8.90622 l 0,64.8203 c 0,14.6133 -1.27,27.7036 -2.79,29.1136 -1.53,1.386 -16.15,4.187 -28.98,4.187 -12.21,0 -27.08,-2.801 -28.6,-4.187 -1.4,-1.024 -1.91,-16.7932 -1.91,-29.1136 l 0,-64.8203 c 0,-4.45701 -0.25,-8.26951 -1.02,-8.90622 -0.76,-0.76172 -6.48,-1.27344 -11.69,-1.27344 -5.47,0 -11.06,0.64062 -11.82,1.27344 -0.76,0.63671 -1.02,4.19921 -1.02,8.90622 l 0,157.6019"
         style="fill:#4dbd38;fill-opacity:1;fill-rule:nonzero;stroke:none"
         id="path92"
         inkscape:connector-curvature="0" /><path
         d="m 2946.6,73.2109 c 14.87,0.1289 25.93,2.5391 27.33,3.5586 1.27,1.4024 2.54,7.6289 2.54,14.8711 0,10.9294 -1.52,16.3984 -2.54,17.4104 -1.91,1.789 -11.19,3.687 -27.71,3.687 -15.89,-0.129 -27.71,-2.156 -29.23,-3.808 -2.04,-1.91 -4.58,-13.0902 -4.58,-21.2308 0,-5.3398 0.26,-8.7695 1.27,-9.9101 3.43,-3.3086 25.93,-4.5782 32.92,-4.5782 z m -57.45,-4.4492 c 0,35.4573 6.36,53.5193 8.26,55.5473 4.32,3.812 19.96,6.613 48.94,6.613 29.48,0 41.56,-3.692 44.61,-6.992 2.29,-2.551 5.97,-17.289 5.97,-31.6487 0,-15.8907 -3.17,-27.2032 -5.21,-29.4922 -3.18,-2.9297 -26.3,-6.0977 -42.07,-6.2305 -8.13,-0.1289 -22.37,1.0195 -33.04,2.9219 -3.69,0.3789 -4.32,-0.6289 -4.32,-3.0508 -0.26,-9.3984 1.26,-27.9609 4.19,-30.8789 2.92,-3.0508 22.11,-5.0899 31.77,-5.0899 22.76,0 37.63,5.0899 39.03,4.711 0.63,-0.2617 2.54,-4.3203 3.3,-7.6328 0.89,-3.4297 1.4,-8.76957 1.14,-9.39847 -0.5,-1.15235 -18.93,-7.500005 -47.79,-7.500005 -21.99,0 -42.45,3.550785 -46.39,7.500005 -7.37,7.62107 -8.39,50.07027 -8.39,60.62107"
         style="fill:#4dbd38;fill-opacity:1;fill-rule:nonzero;stroke:none"
         id="path94"
         inkscape:connector-curvature="0" /><path
         d="m 3026.48,61.1406 c 0,46.6404 3.31,61.2574 4.83,63.1684 1.91,2.293 9.54,4.703 14.5,4.703 1.01,0 1.65,-0.512 2.03,-1.274 l 0.64,-1.136 c 0.89,-1.911 1.65,-2.551 2.92,-2.551 2.54,0 24.15,6.871 33.68,6.871 3.31,0 4.58,-4.203 5.09,-11.192 0.5,-6.101 -0.13,-8.011 -1.53,-8.769 -1.02,-0.512 -3.81,-0.891 -7.75,-0.891 -9.16,0 -24.66,-1.398 -26.7,-3.429 -1.27,-1.153 -2.15,-17.5394 -2.15,-30.0004 l 0,-64.5625 c 0,-4.45701 -0.26,-8.26951 -1.02,-8.90622 -0.77,-0.76172 -6.48,-1.27344 -11.7,-1.27344 -5.46,0 -11.05,0.64062 -11.82,1.27344 -0.76,0.63671 -1.02,4.19921 -1.02,8.90622 l 0,49.0625"
         style="fill:#4dbd38;fill-opacity:1;fill-rule:nonzero;stroke:none"
         id="path96"
         inkscape:connector-curvature="0" /><path
         d="m 3109.32,169.68 c 0,4.32 0.25,8.39 1.01,8.902 0.77,0.637 6.36,1.27 11.32,1.27 5.08,0 10.42,-0.633 11.18,-1.27 0.89,-0.641 1.02,-4.07 1.02,-8.902 l 0.12,-127.7386 c 0,-9.1523 1.53,-16.2695 2.42,-17.1523 0.64,-0.6407 3.69,-2.0391 9.53,-4.0703 1.53,-0.5079 7.12,-2.418 7.5,-3.1797 0.26,-0.7578 -0.12,-5.3399 -1.65,-9.66019 C 3151.13,5.71875 3149.36,0 3145.92,0 c -7.37,0 -27.2,4.32031 -30.5,8 -1.78,1.78906 -6.1,11.5703 -6.1,35.8516 l 0,125.8284"
         style="fill:#4dbd38;fill-opacity:1;fill-rule:nonzero;stroke:none"
         id="path98"
         inkscape:connector-curvature="0" /><path
         d="m 3226.22,18.9414 c 18.18,0 24.66,2.2891 26.31,4.0586 1.27,1.1484 3.31,8.6484 3.31,29.2383 0,3.8125 -0.77,5.4726 -2.16,5.8515 -2.8,0.7618 -10.81,2.6602 -29.24,2.6602 -14.62,0 -26.31,-2.5391 -27.58,-3.6797 -1.9,-1.5312 -3.31,-8.0117 -3.31,-15.8906 0,-7.3711 1.91,-16.9102 3.56,-18.4297 1.66,-1.5195 13.1,-3.9414 29.11,-3.8086 z m 28.09,-13.22265 c -0.63,1.01172 -1.14,1.39063 -2.16,1.39063 -3.3,0 -17.03,-6.468755 -35.46,-6.468755 -18.05,0 -33.56,3.550785 -36.86,6.730465 -3.31,3.68751 -7.25,18.93751 -7.25,34.69921 0,9.0195 1.53,24.7891 4.96,28.2188 3.43,3.4297 25.55,7.6328 42.46,7.6328 14.86,0 30.37,-2.8008 32.92,-1.793 2.28,0.6406 3.3,4.3203 3.3,10.4297 0,9.2812 -1.78,18.6794 -3.18,20.0824 -1.65,1.781 -13.98,4.32 -31.52,4.32 -18.43,0 -35.72,-4.32 -36.86,-4.191 -1.02,0.25 -2.93,4.832 -3.82,8.511 -0.88,4.071 -1.39,8.52 -0.88,9.149 1.9,2.289 23.51,6.492 44.74,6.492 23.01,0 43.22,-3.434 47.66,-7.633 4.07,-4.187 7.37,-25.039 7.37,-57.3202 0,-20.0899 -3.17,-58.85942 -5.46,-60.89067 -1.65,-1.51954 -13.85,-3.17969 -16.53,-3.17969 -1.01,0 -2.03,0.89062 -2.54,2.04297 l -0.89,1.77734"
         style="fill:#4dbd38;fill-opacity:1;fill-rule:nonzero;stroke:none"
         id="path100"
         inkscape:connector-curvature="0" /><path
         d="m 3312.59,68.25 c 0,27.9688 2.29,50.34 4.83,55.93 1.78,2.672 10.42,4.832 14.62,4.832 0.76,0 1.39,-0.25 1.9,-1.274 l 0.51,-1.136 c 1.02,-2.043 1.78,-3.18 3.43,-3.18 4.7,0 13.73,7.5 38.26,7.5 20.72,0 39.79,-4.32 42.83,-7.633 3.44,-3.559 6.87,-28.9804 6.87,-54.9101 l 0,-56.3008 c 0,-4.45701 -0.13,-8.26951 -0.89,-8.90622 -0.89,-0.76172 -6.61,-1.27344 -11.82,-1.27344 -5.34,0 -10.93,0.64062 -11.69,1.27344 -0.77,0.63671 -1.02,4.0664 -1.02,8.90622 l 0,64.8203 c 0,14.6133 -1.27,27.5816 -2.8,29.1136 -1.52,1.386 -16.27,4.187 -28.98,4.187 -12.2,0 -26.82,-2.801 -28.47,-4.187 -1.14,-1.153 -2.04,-16.7932 -2.04,-29.1136 l 0,-64.8203 c 0,-4.45701 -0.25,-8.26951 -1.01,-8.90622 -0.89,-0.76172 -6.48,-1.27344 -11.82,-1.27344 -5.34,0 -10.93,0.64062 -11.7,1.27344 -0.76,0.63671 -1.01,4.19921 -1.01,8.90622 l 0,56.1719"
         style="fill:#4dbd38;fill-opacity:1;fill-rule:nonzero;stroke:none"
         id="path102"
         inkscape:connector-curvature="0" /><path
         d="m 3515.63,20.9688 c 18.42,0 31.65,3.8203 33.8,5.4726 1.15,1.0078 2.55,19.1875 2.55,41.0469 0,19.9609 -1.4,36.1017 -2.55,37.3707 -2.67,2.422 -22.88,5.469 -34.31,5.469 -19.07,0 -26.19,-2.668 -28.47,-5.219 -2.42,-2.281 -5.09,-23.1285 -5.09,-39.1402 0,-20.8477 3.43,-38.1407 5.09,-39.9102 1.65,-1.9102 8.77,-5.0898 28.98,-5.0898 z M 3550.7,169.68 c 0,4.449 0.26,8.261 1.02,8.902 0.77,0.637 6.48,1.27 11.57,1.27 5.21,0 10.17,-0.633 10.93,-1.27 0.76,-0.641 1.01,-4.191 1.01,-8.902 l 0,-154.9417 c 0,-7.36721 -1.39,-10.54689 -2.03,-11.30861 -0.63,-0.75781 -2.79,-1.53125 -10.42,-1.53125 -5.08,0 -6.48,0.39062 -6.99,1.27344 -0.25,0.25781 -1.27,2.28906 -1.65,3.05859 -0.64,1.26953 -1.02,2.03125 -2.16,2.03125 -5.6,0 -12.71,-7.621095 -39.41,-7.621095 -28.85,0 -41.81,5.078125 -44.86,8.257815 -3.31,3.43356 -8.27,28.72266 -8.27,56.94136 0,30.25 5.34,53.8902 8.27,56.9412 3.05,3.438 15,8.141 42.45,8.141 23.51,0 33.68,-7.371 37.37,-7.371 1.9,0 3.17,1.519 3.17,4.32 l 0,41.809"
         style="fill:#4dbd38;fill-opacity:1;fill-rule:nonzero;stroke:none"
         id="path104"
         inkscape:connector-curvature="0" /><path
         d="m 3603.89,17.2891 c 1.27,4.6992 3.69,8.5117 4.96,8.7695 1.52,0.3828 22.24,-4.707 45.25,-4.707 6.73,0 23,0.7578 25.54,2.289 0.9,0.6289 2.42,5.4688 2.42,11.4375 0,6.3633 -0.63,12.4532 -2.16,13.7305 -1.78,1.5195 -17.41,4.832 -33.68,8.7695 -16.02,3.8125 -31.01,6.9922 -35.98,11.1836 -2.66,2.418 -5.33,13.7266 -5.33,26.0586 0,7.6287 1.01,24.2817 4.57,27.8397 4.7,4.57 23.01,8.262 46.01,8.262 28.6,0 44.36,-5.602 45.38,-6.871 0.64,-0.891 0,-5.969 -1.02,-9.153 -1.27,-4.316 -2.92,-8.636 -4.06,-8.769 -1.53,-0.25 -22.37,4.453 -39.02,4.32 -13.09,0 -24.91,-1.898 -27.2,-3.808 -1.53,-1.403 -2.29,-6.8597 -2.29,-11.5707 0,-5.7187 1.27,-10.1719 2.54,-11.3086 2.67,-2.4101 19.57,-5.5898 31.14,-8.1328 18.68,-4.4492 34.57,-8.0078 37.37,-11.0586 2.42,-2.539 4.96,-14.2422 4.96,-28.4805 0,-14.1015 -3.94,-26.69136 -6.36,-29.23042 -2.54,-2.78907 -18.94,-6.218755 -42.45,-6.218755 -33.18,0 -50.97,5.460935 -51.6,6.218755 -0.52,0.89062 -0.14,6.35942 1.01,10.42972"
         style="fill:#4dbd38;fill-opacity:1;fill-rule:nonzero;stroke:none"
         id="path106"
         inkscape:connector-curvature="0" /></g></g></svg>